<?xml version="1.0" encoding="UTF-8"?>
<svg xmlns="http://www.w3.org/2000/svg" xmlns:xlink="http://www.w3.org/1999/xlink" width="224.87999pt" height="599.999999pt" viewBox="0 0 224.87999 599.999999" version="1.2">
<defs>
<clipPath id="clip1">
  <path d="M 10.410156 490.265625 L 224.761719 490.265625 L 224.761719 599.707031 L 10.410156 599.707031 Z M 10.410156 490.265625 "/>
</clipPath>
</defs>
<g id="surface1">
<g clip-path="url(#clip1)" clip-rule="nonzero">
<path style=" stroke:none;fill-rule:evenodd;fill:rgb(9.408569%,36.468506%,94.898987%);fill-opacity:1;" d="M 200.34375 523.691406 C 199.160156 522.609375 198.007812 521.574219 196.878906 520.582031 L 201.503906 515.269531 C 201.113281 518.078125 200.726562 520.878906 200.34375 523.671875 Z M 193.628906 517.792969 C 178.585938 505.167969 168.335938 501.789062 143.265625 502.292969 C 132.316406 502.507812 117.589844 517.808594 110.917969 525.949219 L 111.769531 525.671875 L 133.417969 513.871094 L 110.65625 529.882812 L 105.3125 537.191406 L 138.5 519.453125 C 138.5 532.609375 124.644531 535.621094 114.039062 536.875 L 116.28125 539.402344 L 121.625 541.085938 C 133.25 540.058594 144.660156 537.703125 155.65625 532.945312 C 147.628906 538.421875 140.882812 542.617188 138.230469 549.582031 C 127.601562 548.871094 117.230469 550.1875 107.117188 553.519531 L 97.585938 563.332031 L 97.117188 563.050781 C 80.636719 562.679688 75.125 570.34375 64.136719 582.460938 C 39.171875 571.667969 36.210938 570.324219 10.824219 586.328125 L 30.996094 584.769531 C 19.308594 590.082031 19.027344 590.136719 10.441406 599.40625 L 21.539062 599.40625 L 30.59375 593.542969 L 24.902344 599.40625 L 129.597656 599.40625 C 129.550781 599.324219 129.492188 599.238281 129.4375 599.15625 L 201.207031 599.15625 L 224.796875 599.40625 L 224.796875 582.257812 L 224.609375 577.382812 L 224.796875 577.476562 L 224.796875 496.253906 L 217.246094 490.5 C 205.429688 490.5 198.28125 505.253906 193.644531 517.753906 Z M 147.105469 550.46875 L 150.292969 547.871094 L 148.621094 550.671875 L 147.105469 550.476562 Z M 165.792969 553.316406 C 173.269531 548.28125 180.191406 545.527344 192.152344 542.53125 C 180.171875 548.253906 176.265625 550.523438 170.660156 555.257812 L 165.832031 553.316406 Z M 184.359375 560.671875 C 187.925781 559.582031 191.558594 558.785156 195.253906 558.273438 L 187.609375 561.902344 Z M 113.023438 575.851562 L 115.675781 573.339844 L 113.273438 576.214844 C 113.207031 576.09375 113.144531 575.964844 113.066406 575.84375 Z M 114.589844 589.4375 L 115.179688 588.34375 L 115.851562 589.34375 L 117.554688 589.929688 C 117.207031 588.4375 116.871094 587.074219 116.554688 585.8125 C 120.757812 578.121094 124.851562 571.464844 132.792969 565.386719 C 124.1875 578.1875 125.195312 575.347656 120.804688 589.660156 C 120.460938 590.21875 120.21875 590.820312 120.074219 591.460938 L 120.019531 591.917969 C 118.253906 590.984375 116.414062 590.183594 114.589844 589.398438 Z M 124.953125 594.851562 L 130.34375 586.550781 L 136.453125 576.90625 L 128.046875 597.445312 C 127.097656 596.480469 126.066406 595.609375 124.953125 594.839844 Z M 124.953125 594.851562 "/>
</g>
</g>
</svg>
