<?xml version="1.0" encoding="UTF-8"?>
<svg xmlns="http://www.w3.org/2000/svg" xmlns:xlink="http://www.w3.org/1999/xlink" width="224.87999pt" height="599.999999pt" viewBox="0 0 224.87999 599.999999" version="1.2">
<defs>
<clipPath id="clip1">
  <path d="M 76 10.390625 L 117 10.390625 L 117 23 L 76 23 Z M 76 10.390625 "/>
</clipPath>
<clipPath id="clip2">
  <path d="M 25.34375 50 L 53 50 L 53 78 L 25.34375 78 Z M 25.34375 50 "/>
</clipPath>
<clipPath id="clip3">
  <path d="M 26 133 L 117.542969 133 L 117.542969 179.800781 L 26 179.800781 Z M 26 133 "/>
</clipPath>
</defs>
<g id="surface1">
<g clip-path="url(#clip1)" clip-rule="nonzero">
<path style=" stroke:none;fill-rule:evenodd;fill:rgb(99.609375%,96.859741%,94.119263%);fill-opacity:1;" d="M 76.84375 17.871094 C 81.738281 9.816406 87.5625 6.585938 93.980469 16.800781 L 101.316406 15.296875 C 108.222656 13.871094 114.328125 18.21875 116.9375 22.695312 C 103.585938 17.71875 99.40625 16.867188 87.695312 22.503906 L 81.917969 19.621094 L 90.886719 17.902344 C 86.214844 13.734375 80.84375 14.503906 76.84375 17.871094 Z M 76.84375 17.871094 "/>
<path style=" stroke:none;fill-rule:evenodd;fill:rgb(9.408569%,36.468506%,94.898987%);fill-opacity:1;" d="M 76.84375 17.871094 C 79.105469 14.148438 81.570312 11.449219 84.195312 10.640625 L 83.589844 15.0625 C 82.339844 15.140625 81.136719 15.421875 79.984375 15.902344 C 78.828125 16.382812 77.78125 17.039062 76.84375 17.871094 Z M 112.035156 17.5625 C 114.054688 18.902344 115.691406 20.613281 116.9375 22.695312 C 113.4375 21.296875 109.859375 20.140625 106.203125 19.222656 Z M 112.035156 17.5625 "/>
</g>
<g clip-path="url(#clip2)" clip-rule="nonzero">
<path style=" stroke:none;fill-rule:evenodd;fill:rgb(99.609375%,96.859741%,94.119263%);fill-opacity:1;" d="M 52.738281 73.515625 C 50.742188 71.894531 46.984375 70.148438 39.542969 73.863281 L 31.578125 77.847656 L 25.4375 70.65625 L 32.394531 70.917969 C 33.742188 61.484375 31.910156 57.03125 26.738281 50.578125 C 37.660156 57.386719 38.273438 61.574219 37.75 70.1875 C 46.28125 67.136719 51.539062 67.816406 52.738281 73.515625 Z M 52.738281 73.515625 "/>
</g>
<path style=" stroke:none;fill-rule:evenodd;fill:rgb(9.408569%,36.468506%,94.898987%);fill-opacity:1;" d="M 52.738281 73.515625 C 51.121094 72.203125 48.398438 70.828125 43.527344 72.261719 L 49.503906 69.023438 C 50.378906 69.449219 51.101562 70.058594 51.675781 70.851562 C 52.246094 71.640625 52.601562 72.515625 52.738281 73.484375 Z M 32.425781 61.304688 C 31.617188 57.476562 29.769531 54.375 26.707031 50.578125 C 31.988281 53.875 34.867188 56.554688 36.402344 59.421875 Z M 32.425781 61.304688 "/>
<g clip-path="url(#clip3)" clip-rule="nonzero">
<path style=" stroke:none;fill-rule:evenodd;fill:rgb(9.408569%,36.468506%,94.898987%);fill-opacity:1;" d="M 39.535156 173.0625 C 40.472656 173.0625 42.136719 172.976562 43.476562 173 C 44.539062 173.003906 45.589844 173.09375 46.636719 173.265625 C 47.445312 173.414062 48.019531 173.597656 48.050781 173.824219 C 48.082031 174.050781 47.574219 174.328125 47.742188 174.585938 C 47.914062 174.84375 48.777344 175.113281 50.167969 175.726562 C 51.558594 176.34375 53.398438 177.289062 54.609375 177.996094 C 55.367188 178.402344 56.070312 178.890625 56.71875 179.453125 C 57.042969 179.742188 57.125 179.882812 56.605469 179.75 C 56.089844 179.621094 54.992188 179.234375 53.375 178.730469 C 51.5 178.125 49.597656 177.640625 47.664062 177.28125 C 45.945312 176.96875 44.222656 176.953125 42.5 177.234375 C 41.140625 177.488281 39.808594 177.855469 38.507812 178.335938 C 37.703125 178.617188 37.703125 178.640625 37.207031 178.214844 C 36.425781 177.519531 35.585938 176.90625 34.6875 176.367188 C 33.921875 175.960938 33.113281 175.667969 32.265625 175.484375 C 31.773438 175.371094 31.746094 175.363281 32.128906 175.242188 L 34.042969 174.660156 C 34.785156 174.441406 35.472656 174.222656 35.550781 173.914062 C 35.632812 173.605469 35.101562 173.21875 34.40625 172.84375 C 33.484375 172.355469 32.507812 172.023438 31.480469 171.851562 C 30.109375 171.589844 28.25 171.421875 27.296875 171.339844 C 26.34375 171.257812 26.429688 171.273438 26.722656 171.1875 C 27.3125 170.988281 27.910156 170.832031 28.523438 170.722656 C 29.800781 170.503906 31.089844 170.371094 32.386719 170.320312 C 33.734375 170.265625 35.082031 170.3125 36.425781 170.464844 C 37.34375 170.554688 38.238281 170.746094 39.117188 171.03125 C 39.714844 171.257812 40.003906 171.484375 39.816406 171.839844 C 39.460938 172.234375 39.058594 172.574219 38.613281 172.863281 C 38.378906 173.089844 38.613281 173.070312 39.511719 173.039062 Z M 78.394531 133.191406 C 80.59375 133.347656 82.777344 133.617188 84.945312 134 C 86.898438 134.230469 88.808594 134.652344 90.675781 135.273438 C 92.242188 135.871094 93.496094 136.746094 94.882812 137.148438 C 96.167969 137.4375 97.464844 137.566406 98.777344 137.539062 C 99.761719 137.585938 100.199219 137.75 100.394531 137.960938 C 100.585938 138.171875 100.449219 138.429688 101.628906 138.996094 C 102.808594 139.5625 105.296875 140.429688 107.382812 141.425781 C 109.351562 142.363281 111.171875 143.535156 112.84375 144.9375 C 114.296875 146.152344 115.675781 147.441406 116.980469 148.816406 C 117.789062 149.625 117.667969 149.683594 116.027344 148.726562 C 114.386719 147.773438 111.234375 145.863281 108.035156 144.394531 C 105.109375 143 102.046875 142.054688 98.84375 141.5625 C 96.546875 141.273438 94.277344 141.410156 92.03125 141.976562 C 90.726562 142.296875 89.457031 142.71875 88.21875 143.238281 C 87.539062 143.53125 87.515625 143.5625 86.5625 142.839844 C 85.609375 142.121094 83.726562 140.648438 82.652344 139.804688 C 81.578125 138.964844 81.304688 138.753906 81.722656 138.6875 C 82.144531 138.625 83.265625 138.6875 84.597656 138.6875 C 85.957031 138.667969 87.304688 138.53125 88.640625 138.285156 C 89.414062 138.125 90.15625 137.875 90.867188 137.53125 C 91.222656 137.359375 91.199219 137.351562 90.410156 137.167969 C 89.617188 136.980469 88.066406 136.597656 86.175781 136.097656 C 84.285156 135.59375 82.046875 134.972656 80.292969 134.550781 C 79.113281 134.351562 77.960938 134.0625 76.828125 133.675781 C 76.390625 133.433594 76.828125 133.117188 78.394531 133.191406 Z M 78.394531 133.191406 "/>
</g>
</g>
</svg>
