<?xml version="1.0" encoding="UTF-8"?>
<svg xmlns="http://www.w3.org/2000/svg" xmlns:xlink="http://www.w3.org/1999/xlink" width="224.87999pt" height="599.999999pt" viewBox="0 0 224.87999 599.999999" version="1.2">
<defs>
<clipPath id="clip1">
  <path d="M 0.0820312 490.265625 L 214.386719 490.265625 L 214.386719 599.707031 L 0.0820312 599.707031 Z M 0.0820312 490.265625 "/>
</clipPath>
</defs>
<g id="surface1">
<g clip-path="url(#clip1)" clip-rule="nonzero">
<path style=" stroke:none;fill-rule:evenodd;fill:rgb(9.408569%,36.468506%,94.898987%);fill-opacity:1;" d="M 24.535156 523.691406 C 25.71875 522.609375 26.871094 521.574219 28 520.582031 L 23.375 515.269531 C 23.769531 518.078125 24.152344 520.878906 24.535156 523.671875 Z M 31.25 517.792969 C 46.292969 505.167969 56.542969 501.789062 81.613281 502.292969 C 92.5625 502.507812 107.289062 517.808594 113.960938 525.949219 L 113.109375 525.671875 L 91.460938 513.871094 L 114.222656 529.882812 L 119.566406 537.191406 L 86.378906 519.453125 C 86.378906 532.609375 100.234375 535.621094 110.839844 536.875 L 108.597656 539.402344 L 103.253906 541.085938 C 91.628906 540.058594 80.222656 537.703125 69.222656 532.945312 C 77.25 538.421875 83.996094 542.617188 86.648438 549.582031 C 97.277344 548.871094 107.648438 550.1875 117.761719 553.519531 L 127.292969 563.332031 L 127.761719 563.050781 C 144.242188 562.679688 149.753906 570.34375 160.742188 582.460938 C 185.707031 571.667969 188.671875 570.324219 214.054688 586.328125 L 193.882812 584.769531 C 205.574219 590.082031 205.851562 590.136719 214.441406 599.40625 L 203.339844 599.40625 L 194.285156 593.542969 L 199.976562 599.40625 L 95.28125 599.40625 C 95.328125 599.324219 95.386719 599.238281 95.441406 599.15625 L 23.675781 599.15625 L 0.0820312 599.40625 L 0.0820312 582.257812 L 0.269531 577.382812 L 0.0820312 577.476562 L 0.0820312 496.253906 L 7.632812 490.5 C 19.449219 490.5 26.597656 505.253906 31.234375 517.753906 Z M 77.773438 550.46875 L 74.585938 547.871094 L 76.257812 550.671875 L 77.773438 550.476562 Z M 59.085938 553.316406 C 51.609375 548.28125 44.6875 545.527344 32.726562 542.53125 C 44.707031 548.253906 48.613281 550.523438 54.21875 555.257812 L 59.046875 553.316406 Z M 40.519531 560.671875 C 36.953125 559.582031 33.320312 558.785156 29.625 558.273438 L 37.269531 561.902344 Z M 111.859375 575.851562 L 109.203125 573.339844 L 111.605469 576.214844 C 111.671875 576.09375 111.734375 575.964844 111.8125 575.84375 Z M 110.289062 589.4375 L 109.699219 588.34375 L 109.027344 589.34375 L 107.324219 589.929688 C 107.671875 588.4375 108.007812 587.074219 108.324219 585.8125 C 104.121094 578.121094 100.027344 571.464844 92.085938 565.386719 C 100.691406 578.1875 99.683594 575.347656 104.074219 589.660156 C 104.417969 590.21875 104.660156 590.820312 104.804688 591.460938 L 104.859375 591.917969 C 106.625 590.984375 108.464844 590.183594 110.289062 589.398438 Z M 99.925781 594.851562 L 94.535156 586.550781 L 88.425781 576.90625 L 96.832031 597.445312 C 97.78125 596.480469 98.8125 595.609375 99.925781 594.839844 Z M 99.925781 594.851562 "/>
</g>
</g>
</svg>
