<?xml version="1.0" encoding="UTF-8"?>
<svg xmlns="http://www.w3.org/2000/svg" xmlns:xlink="http://www.w3.org/1999/xlink" width="1012.5pt" height="225pt" viewBox="0 0 1012.5 225" version="1.2">
<defs>
<clipPath id="clip1">
  <path d="M 0 25 L 395 25 L 395 224.945312 L 0 224.945312 Z M 0 25 "/>
</clipPath>
<clipPath id="clip2">
  <path d="M 385 43 L 752 43 L 752 224.945312 L 385 224.945312 Z M 385 43 "/>
</clipPath>
<clipPath id="clip3">
  <path d="M 714 42.246094 L 1012 42.246094 L 1012 224.945312 L 714 224.945312 Z M 714 42.246094 "/>
</clipPath>
</defs>
<g id="surface1">
<g clip-path="url(#clip1)" clip-rule="nonzero">
<path style=" stroke:none;fill-rule:nonzero;fill:rgb(100%,95.289612%,83.918762%);fill-opacity:1;" d="M 228.988281 137.460938 C 229.902344 137.214844 230.988281 137.921875 230.988281 138.804688 C 231.015625 178.386719 230.535156 176.828125 231.15625 176.769531 C 231.484375 176.738281 231.621094 176.328125 231.644531 176.011719 C 231.675781 175.578125 231.425781 175.105469 231.875 174.753906 L 231.859375 174.753906 C 232.453125 174.816406 233.042969 174.875 233.636719 174.933594 C 233.636719 175.429688 233.636719 175.925781 233.636719 176.671875 C 234.023438 175.988281 234.441406 175.800781 234.988281 175.90625 C 235.179688 175.941406 235.367188 175.882812 235.359375 175.636719 C 235.335938 174.917969 235.480469 174.191406 235.28125 173.480469 C 235.113281 172.875 234.625 173.339844 234.320312 173.1875 C 233.921875 172.988281 233.234375 173.6875 233.164062 173.109375 C 233.101562 172.578125 233.875 172.910156 234.269531 172.824219 C 234.757812 172.714844 235.183594 172.40625 235.722656 172.417969 C 236.089844 172.425781 235.730469 93.308594 235.726562 93.152344 C 235.675781 91.445312 236.148438 92.035156 237.363281 91.652344 C 237.398438 91.691406 237.347656 91.867188 237.492188 91.734375 C 237.441406 91.714844 237.390625 91.695312 237.339844 91.679688 C 237.851562 90.945312 239.527344 91.792969 240.320312 89.222656 C 240.375 89.050781 240.492188 88.925781 240.621094 88.960938 C 241.308594 89.136719 241.789062 88.496094 242.472656 88.535156 C 243.046875 88.570312 243.851562 87.484375 243.890625 86.847656 C 243.964844 85.671875 243.671875 84.503906 243.734375 83.347656 C 244.382812 70.746094 242.847656 70.390625 244.3125 67.65625 C 244.464844 67.371094 245.28125 67.894531 245.308594 68.382812 C 245.382812 69.671875 245.6875 71.058594 245.433594 72.226562 C 244.695312 75.621094 245.933594 78.585938 245.207031 86.914062 C 245.195312 87.058594 244.90625 88.203125 245.925781 87.585938 C 246.097656 87.484375 246.128906 87.539062 246.246094 88.21875 C 246.203125 88.242188 246.15625 88.261719 246.113281 88.28125 C 246.132812 88.304688 246.148438 88.328125 246.167969 88.351562 C 246.191406 88.304688 246.21875 88.261719 246.242188 88.21875 C 247.5625 89.421875 249.285156 88.484375 249.140625 89.363281 C 249.015625 90.101562 249.453125 90.8125 249.242188 91.5625 C 249.171875 91.808594 249.574219 91.835938 250.238281 91.585938 L 250.214844 91.613281 C 251.136719 91.957031 252.097656 91.695312 253.039062 91.761719 C 253.164062 91.773438 253.351562 91.644531 253.171875 91.402344 C 253.035156 91.222656 252.988281 90.972656 252.902344 90.757812 C 252.902344 90.757812 252.941406 90.78125 252.941406 90.78125 C 253.109375 90.707031 253.109375 90.632812 252.941406 90.558594 L 252.902344 90.582031 C 252.976562 90.21875 252.375 90.300781 252.464844 89.902344 C 252.910156 89.761719 252.980469 90.488281 253.421875 90.320312 C 253.480469 90.316406 253.539062 90.3125 253.59375 90.3125 C 253.578125 90.28125 253.558594 90.253906 253.539062 90.222656 C 253.5 90.261719 253.460938 90.300781 253.421875 90.339844 C 253.6875 90.4375 253.605469 89.953125 253.949219 90.09375 C 253.703125 90.71875 253.824219 90.945312 254.59375 90.792969 C 255.183594 90.679688 255.824219 90.839844 256.441406 90.695312 C 256.757812 90.625 257.023438 90.761719 257.101562 91.125 C 257.175781 91.078125 257.074219 91.140625 256.996094 91.183594 C 257.039062 91.230469 257.085938 91.277344 257.128906 91.324219 L 257.101562 91.308594 C 257.058594 91.527344 256.535156 91.605469 256.796875 91.8125 C 257.589844 92.4375 258.320312 91.195312 258.847656 91.597656 C 259.183594 91.851562 259.316406 92.347656 258.796875 92.710938 C 258.722656 92.765625 258.746094 97.953125 258.746094 98.046875 C 258.746094 98.328125 258.746094 98.691406 259.054688 98.707031 C 259.527344 98.734375 260.394531 99.035156 259.804688 99.402344 C 261.171875 99.554688 262.421875 99.648438 263.667969 99.769531 C 264.617188 99.863281 265.542969 99.394531 266.503906 99.796875 C 266.886719 99.957031 267.074219 100.15625 267.039062 100.453125 C 266.292969 106.921875 267.082031 134.925781 266.667969 147.140625 C 267.578125 147.320312 276.710938 147.828125 277.253906 148.238281 C 277.507812 146.65625 277.132812 142.773438 277.359375 140.871094 C 277.667969 138.324219 277.628906 138.023438 278.898438 138.066406 C 280.945312 138.132812 279.027344 136.242188 281.148438 136.238281 C 283.261719 136.234375 282.585938 136.078125 285.847656 135.726562 C 285.847656 135.726562 285.886719 135.695312 285.886719 135.695312 L 285.835938 135.71875 C 286.34375 135.011719 285.449219 134.96875 285.332031 134.558594 C 285.636719 134.445312 285.882812 134.367188 286.316406 134.554688 C 287.070312 134.878906 287.945312 134.59375 288.761719 134.519531 C 289.550781 134.449219 288.355469 129.1875 289.09375 127.53125 C 289.367188 126.917969 289.90625 127.53125 290.328125 127.390625 C 291.597656 126.96875 292.894531 127.621094 293.003906 126.929688 C 293.066406 126.550781 294.390625 126.882812 294.875 126.828125 C 295.242188 126.789062 295.167969 126.347656 295.191406 126.066406 C 295.292969 124.914062 295.332031 124.894531 296.46875 124.886719 C 301.554688 124.859375 298.902344 124.441406 299.929688 123.734375 C 300.367188 123.839844 299.710938 124.414062 300.238281 124.472656 C 301.054688 124.5625 300.210938 123.574219 300.933594 123.589844 C 301.078125 123.777344 300.742188 123.980469 300.785156 124.222656 C 300.828125 124.460938 300.761719 124.742188 301.136719 124.703125 C 301.847656 124.636719 301.945312 125.074219 301.878906 125.621094 C 301.738281 126.734375 302.777344 126.171875 303.691406 126.820312 C 304.660156 127.507812 305.066406 126.609375 305.605469 126.171875 C 305.953125 125.886719 305.3125 125.460938 305.613281 125.085938 C 306.128906 125.21875 305.640625 125.785156 306.035156 125.964844 C 306.316406 125.824219 305.84375 125.53125 306.214844 125.371094 C 306.324219 126.761719 307.332031 126.3125 308.140625 126.316406 C 310.707031 126.332031 311.488281 125.65625 311.488281 127.238281 C 311.539062 151.800781 311.296875 168.875 311.296875 168.875 C 311.300781 169.761719 311.964844 169.125 313.878906 169.535156 C 314.371094 169.640625 314.898438 169.394531 315.078125 170.207031 C 315.167969 170.617188 315.832031 170.429688 316.230469 170.453125 C 317.828125 170.542969 317.835938 170.527344 317.828125 168.914062 C 317.804688 164.429688 317.957031 159.945312 317.773438 155.460938 C 317.757812 155.0625 317.296875 152.527344 318.140625 151.164062 C 319.195312 149.472656 317.363281 147.398438 319.667969 145.472656 C 320.480469 144.792969 320.703125 143.769531 320.9375 142.882812 C 321.28125 141.605469 321.886719 140.425781 322.175781 139.144531 C 322.273438 138.707031 322.535156 138.605469 322.742188 139.109375 C 324.484375 143.386719 324.164062 143.199219 325.042969 143.058594 C 331.652344 142 331.808594 143.625 331.753906 141.023438 C 331.671875 137.273438 331.992188 133.535156 331.980469 129.789062 C 331.980469 129.457031 331.628906 129.210938 332.417969 129.167969 C 332.402344 129.140625 332.390625 129.113281 332.375 129.082031 C 332.332031 129.117188 332.292969 129.15625 332.25 129.191406 C 333.054688 128.652344 334.019531 128.773438 334.898438 128.554688 C 336.308594 128.203125 337.738281 128.46875 339.175781 128.507812 C 339.160156 127.972656 342.691406 128.148438 345.023438 128.277344 C 347.863281 128.433594 346.1875 127.179688 347.5625 126.476562 L 347.53125 126.515625 C 347.558594 126.5625 347.582031 126.609375 347.605469 126.652344 C 347.652344 126.609375 347.703125 126.5625 347.75 126.519531 L 347.722656 126.476562 C 350.550781 123.535156 353.871094 124.253906 354.46875 124.519531 C 356.378906 125.371094 357.421875 123.429688 357.519531 125.207031 C 357.570312 126.164062 359.792969 125.3125 360.710938 125.53125 C 361.40625 125.695312 362.363281 125.101562 362.730469 126.226562 C 362.832031 126.535156 363.054688 126.347656 363.238281 126.371094 C 364.792969 126.578125 364.390625 126.675781 364.417969 133.507812 C 364.496094 153.28125 364.414062 156.742188 364.570312 157.039062 C 364.71875 155.03125 367.175781 155.929688 370.234375 155.757812 C 370.691406 155.730469 371.113281 156.023438 371.613281 155.976562 C 371.964844 155.945312 372.023438 156.351562 372.023438 156.664062 C 372.019531 159.441406 371.742188 159.808594 372.765625 159.765625 C 379.351562 159.492188 376.816406 158.027344 377.378906 170.839844 C 377.417969 171.699219 377.777344 171.921875 378.476562 171.628906 C 379.054688 171.390625 379.515625 171.777344 380.054688 171.761719 C 381.398438 171.722656 381 171.609375 381.164062 166.753906 C 381.167969 166.625 381.257812 166.496094 381.441406 166.382812 C 381.441406 171.484375 381.332031 171.238281 381.667969 171.375 C 383.371094 172.058594 382.996094 170.101562 385.167969 171.199219 C 385.882812 171.558594 385.984375 171.324219 385.976562 170.664062 C 385.957031 168.824219 386.277344 166.992188 386.15625 165.144531 C 386.148438 164.988281 386.097656 164.785156 386.382812 164.667969 C 386.695312 165.042969 386.332031 166.273438 386.410156 167.164062 C 386.5 168.222656 386.410156 168.214844 387.457031 168.003906 C 388.734375 167.742188 387.765625 170.019531 388.394531 170.078125 C 388.707031 170.105469 388.714844 169.691406 388.683594 169.535156 C 388.382812 167.945312 389.757812 168.609375 389.914062 168.457031 C 390.925781 167.457031 392.046875 168.394531 393.109375 168.273438 C 394.667969 168.097656 392.871094 171.367188 394.308594 171.554688 C 394.308594 189.011719 394.304688 206.46875 394.324219 223.925781 C 394.324219 225.230469 418.070312 224.753906 -4.574219 224.753906 C -4.574219 164.628906 -5.679688 178.257812 -1.976562 176.769531 C -0.363281 176.121094 2.167969 177.007812 2.359375 176.386719 C 2.960938 174.441406 3.695312 176.257812 3.453125 174.832031 C 3 172.152344 5.480469 175.449219 5.625 173 C 5.640625 172.792969 5.441406 172.492188 5.867188 172.46875 C 6.152344 172.453125 6.488281 172.488281 6.542969 172.101562 C 6.605469 171.6875 6.085938 171.824219 5.953125 171.570312 C 6.101562 171.25 6.414062 171.328125 6.582031 171.390625 C 8.921875 172.273438 12.539062 171.113281 13.417969 172.199219 C 13.695312 172.542969 14.613281 172.410156 15.238281 172.410156 C 16.808594 172.414062 15.84375 174.089844 17.640625 173.910156 C 17.878906 173.886719 18.125 173.914062 18.367188 173.914062 C 19.472656 173.921875 19.460938 173.921875 19.453125 175.136719 C 19.449219 175.519531 19.476562 176.003906 20.074219 175.847656 C 20.664062 175.699219 20.644531 176.503906 21.210938 176.472656 C 22.125 176.417969 23.09375 176.625 23.945312 176.234375 C 24.691406 175.886719 25.402344 176.007812 26.121094 176.101562 C 27.15625 176.238281 28.265625 175.695312 29.242188 176.453125 C 30.121094 177.132812 28.984375 172.902344 29.628906 161.292969 C 29.640625 161.144531 29.707031 160.980469 29.550781 160.882812 C 28.722656 160.371094 28.328125 159.421875 27.417969 158.828125 C 29.265625 158.332031 29.546875 156.964844 29.5 155.394531 C 29.414062 152.648438 31.1875 149.710938 33.75 148.8125 C 34.125 148.679688 34.640625 148.339844 34.441406 147.722656 C 34.351562 147.433594 34.574219 147.125 34.667969 147.121094 C 35.574219 147.074219 35.300781 146.394531 35.28125 145.9375 C 35.230469 144.894531 35.507812 143.832031 35.105469 142.800781 C 35.046875 142.644531 36.046875 140.664062 34.054688 139.660156 C 37.054688 137.550781 35.375 138.71875 36.425781 133.945312 C 36.824219 132.128906 39.71875 132.445312 40.707031 131.027344 C 41.269531 130.214844 41.289062 130.167969 40.214844 129.761719 C 41.628906 129.648438 40.800781 128.726562 41.316406 127.394531 C 41.53125 126.835938 41.390625 126.605469 40.867188 126.296875 C 40.027344 125.804688 40.183594 124.214844 41.039062 123.785156 C 41.648438 123.476562 41.535156 122.128906 40.953125 121.5625 C 40.214844 120.84375 39.394531 120.179688 39.234375 119 C 39.175781 118.550781 38.324219 118.667969 38.042969 118.195312 C 38.074219 117.800781 39.570312 118.082031 39.289062 116.914062 C 39.230469 116.65625 39.382812 116.523438 39.644531 116.527344 C 39.679688 116.566406 39.628906 116.742188 39.773438 116.605469 C 39.722656 116.589844 39.671875 116.570312 39.621094 116.550781 C 39.378906 115.425781 41.605469 115.195312 41.46875 113.296875 C 41.191406 109.484375 42.519531 111.390625 42.152344 113.46875 C 41.824219 115.3125 45.574219 116.851562 44.011719 117.859375 C 44.453125 118.179688 45.382812 117.722656 45.425781 118.398438 C 45.457031 118.816406 45.246094 118.722656 44.394531 118.710938 C 44.390625 118.710938 44.355469 118.695312 44.355469 118.695312 L 44.421875 118.710938 C 44.257812 119.234375 44.148438 119.714844 43.816406 120.238281 C 43.242188 121.148438 41.792969 121.628906 42.136719 123.082031 C 42.214844 123.402344 42.113281 123.6875 42.625 123.847656 C 43.453125 124.101562 43.589844 125.65625 42.902344 126.246094 C 42.605469 126.5 42.105469 126.671875 42.207031 127.125 C 42.390625 127.949219 42.039062 128.902344 42.730469 129.601562 C 42.90625 129.777344 43.164062 129.96875 42.949219 130.152344 C 42.289062 130.722656 42.8125 130.90625 43.179688 131.277344 C 44.957031 133.074219 47.53125 132.75 47.265625 136.609375 C 47.035156 139.921875 49.9375 139.886719 48.921875 140.664062 C 47.289062 141.914062 48.59375 143.023438 48.285156 143.714844 C 47.800781 144.808594 48.089844 145.96875 47.980469 147.09375 C 47.953125 147.394531 48.246094 147.375 48.339844 147.546875 C 48.519531 147.890625 49.496094 147.90625 48.789062 148.644531 C 48.75 148.683594 49.054688 148.996094 49.292969 149.113281 C 51.921875 150.371094 53.179688 152.585938 53.582031 155.527344 C 54.105469 155.433594 53.761719 154.957031 54.113281 154.769531 C 54.292969 156.015625 54.023438 157.277344 54.445312 158.46875 C 54.441406 158.3125 54.234375 124.566406 54.394531 124.542969 C 55.464844 124.390625 56.441406 123.847656 57.542969 123.792969 C 58.878906 123.722656 58.308594 123.105469 57.726562 121.738281 C 58.878906 121.1875 58.722656 122.453125 59.800781 123.457031 C 60.433594 124.046875 61.199219 123.988281 61.558594 122.320312 C 61.589844 122.171875 61.613281 121.945312 61.78125 122.011719 C 62.386719 122.25 62.964844 121.949219 63.558594 121.980469 C 63.746094 121.992188 63.953125 122.074219 64.132812 121.859375 C 64.546875 121.371094 64.976562 120.894531 65.421875 121.863281 C 65.699219 122.464844 66.589844 121.34375 67.125 122.019531 C 67.160156 122.0625 67.25 122.113281 67.277344 122.097656 C 69.253906 120.996094 71.332031 122.007812 73.359375 121.816406 C 76.949219 121.480469 78.34375 122.222656 77.929688 121.148438 C 77.855469 120.960938 77.710938 120.589844 78.183594 120.535156 C 79.800781 120.363281 77.808594 122.023438 80.367188 121.996094 C 81.75 121.980469 81.75 121.992188 81.867188 123.316406 C 81.882812 123.511719 81.804688 123.8125 82.125 123.785156 C 83.011719 123.714844 83.769531 124.246094 84.675781 124.203125 C 85.863281 124.152344 87.023438 124.625 88.234375 124.597656 C 88.828125 124.585938 88.960938 124.964844 88.957031 125.546875 C 88.847656 143.828125 89.03125 159.21875 89.132812 160.492188 C 89.101562 160.511719 89.070312 160.535156 89.039062 160.554688 C 89.105469 160.550781 89.09375 160.578125 89.113281 160.472656 C 89.269531 174.210938 88.613281 174.097656 89.996094 174.117188 C 90.667969 174.125 91.484375 173.777344 91.878906 174.84375 C 91.972656 175.097656 92.914062 175.402344 93.394531 175.03125 C 94.535156 174.15625 95.988281 175.929688 96.777344 174.554688 C 96.808594 174.5 96.964844 174.457031 97.003906 174.488281 C 98.15625 175.378906 97.382812 174.179688 97.667969 168.574219 C 97.71875 167.621094 97.894531 166.695312 97.675781 165.734375 C 97.578125 165.292969 97.988281 165.199219 98.402344 165.1875 C 98.871094 165.175781 99.15625 165.257812 99.105469 165.808594 C 98.800781 169.011719 99.15625 172.199219 99.117188 174.246094 C 99.101562 175.117188 99.683594 174.953125 100.199219 174.941406 C 100.53125 174.9375 100.558594 174.9375 100.535156 174.320312 C 100.390625 170.804688 100.328125 167.292969 100.324219 163.777344 C 100.320312 162.742188 99.730469 157.589844 100.640625 157.035156 C 100.945312 156.851562 101.320312 156.847656 101.675781 156.847656 C 103.785156 156.847656 105.886719 156.699219 107.988281 156.523438 C 109.613281 156.386719 111.84375 156.613281 113.386719 156.125 C 114.058594 155.914062 114.101562 155.59375 114.242188 154.980469 C 114.496094 153.875 114.429688 152.636719 114.449219 151.515625 C 114.554688 145.347656 114.398438 139.167969 114.371094 132.996094 C 114.3125 121.554688 114.351562 110.113281 114.453125 98.671875 C 114.699219 71.367188 113.359375 72.570312 115.464844 71.484375 C 116.851562 70.769531 118.3125 71.378906 119.707031 71.136719 C 121.5625 70.820312 123.09375 71.6875 124.679688 72.394531 C 124.972656 72.085938 124.625 71.585938 125.027344 71.34375 C 125.433594 71.570312 124.65625 72.855469 126.3125 73.113281 C 127.234375 73.257812 128.066406 73.980469 128.941406 74.445312 C 129.257812 74.609375 129.164062 74.914062 129.164062 75.164062 C 129.21875 79.617188 128.941406 80.011719 129.816406 79.363281 C 130.257812 79.039062 129.863281 80.070312 130.394531 80.011719 C 130.765625 79.96875 130.613281 79.632812 130.613281 79.429688 C 130.625 77.039062 130.652344 74.648438 130.601562 72.261719 C 130.566406 70.40625 131.785156 71.367188 132.269531 69.648438 C 132.851562 67.589844 132.898438 66.792969 132.785156 51.96875 C 132.765625 49.34375 134.410156 51.636719 135.246094 47.011719 C 135.386719 46.25 135.421875 45.472656 135.160156 44.707031 C 134.46875 42.679688 136.125 40 135.042969 37.71875 C 134.949219 37.519531 134.894531 37.195312 134.988281 37.015625 C 135.941406 35.195312 134.8125 25.046875 136.054688 25.035156 C 136.859375 25.027344 135.984375 26.125 136.777344 27.507812 C 137.101562 28.074219 136.785156 28.664062 136.785156 29.246094 C 136.78125 31.363281 136.496094 33.53125 136.867188 35.578125 C 137.214844 37.488281 136.425781 39.292969 136.828125 41.113281 C 137.441406 43.882812 136.492188 48.921875 138.269531 49.007812 C 139.707031 49.078125 139.21875 50.28125 139.652344 50.441406 C 141.0625 50.96875 140.558594 51.160156 140.636719 62.734375 C 140.652344 65.082031 140.773438 67.425781 140.742188 69.773438 C 140.730469 70.496094 140.984375 70.902344 141.566406 71.070312 C 142.414062 71.3125 142.230469 71.511719 142.257812 76.113281 C 142.257812 76.3125 142.152344 76.554688 142.460938 76.625 C 142.933594 76.730469 142.71875 75.882812 143.1875 76.050781 C 144.175781 76.402344 145.222656 76.242188 146.242188 76.328125 C 147.378906 76.421875 148.492188 76.753906 149.65625 76.613281 C 150.351562 76.53125 150.972656 76.960938 151.644531 77.109375 C 153.324219 77.476562 152.410156 79.398438 152.617188 87.847656 C 152.660156 89.519531 152.894531 109.898438 152.589844 110.890625 C 152.582031 110.886719 152.574219 110.878906 152.566406 110.871094 C 152.582031 110.882812 152.59375 110.894531 152.609375 110.90625 C 152.59375 111.03125 152.578125 111.152344 152.566406 111.277344 C 152.527344 111.3125 152.351562 111.261719 152.484375 111.40625 C 152.503906 111.355469 152.523438 111.300781 152.539062 111.25 C 152.863281 111.859375 153.554688 111.703125 154.03125 111.824219 C 155.359375 112.167969 156.742188 112.210938 158.058594 111.515625 C 159.160156 114.957031 158.894531 114.832031 158.894531 130.808594 C 158.894531 131.957031 158.84375 132.433594 159.277344 132.546875 C 159.722656 132.660156 160.191406 132.449219 160.335938 131.90625 C 160.476562 131.390625 160.632812 131.757812 160.789062 131.886719 C 160.742188 131.863281 160.695312 131.84375 160.648438 131.820312 C 160.640625 131.847656 160.636719 131.875 160.632812 131.90625 C 160.683594 131.898438 160.738281 131.890625 160.789062 131.882812 C 161.078125 132.09375 160.582031 132.3125 160.820312 132.605469 C 160.96875 132.789062 161.007812 132.976562 161.238281 132.804688 C 162.8125 131.648438 163.886719 132.992188 165.164062 133.539062 C 165.339844 133.382812 165.171875 133.113281 165.25 132.902344 C 165.4375 132.390625 166.164062 132.496094 166.179688 132.949219 C 166.203125 133.59375 166.332031 134.238281 166.320312 134.878906 C 166.308594 135.492188 166.652344 135.71875 167.132812 135.730469 C 171.644531 135.84375 171.207031 135.785156 171.238281 135.242188 C 171.359375 133.230469 171.261719 133.136719 171.648438 132.9375 C 171.839844 132.835938 172.050781 133.015625 172.09375 133.140625 C 172.25 133.601562 172.546875 133.386719 172.847656 133.417969 C 173.417969 133.476562 173.914062 132.777344 174.5625 133.394531 C 174.910156 133.722656 175.480469 133.035156 176.082031 133.285156 C 176.304688 133.378906 176.300781 132.734375 176.136719 132.289062 C 177.699219 133.816406 178.03125 135.585938 177.652344 137.65625 C 178.144531 137.484375 178.34375 137.324219 178.789062 137.652344 C 179.28125 138.015625 180.234375 137.773438 180.988281 137.757812 C 181.164062 137.753906 181.195312 137.898438 181.363281 135.160156 C 181.398438 134.585938 181.816406 134.503906 182.035156 134.851562 C 182.355469 135.359375 182.746094 135.210938 183.136719 135.210938 C 184.613281 135.207031 186.078125 135.101562 187.503906 134.660156 C 187.585938 134.632812 187.753906 134.664062 187.757812 134.640625 C 188.003906 133.496094 188.644531 134.234375 189.21875 134.257812 C 190.289062 134.296875 191.398438 134.601562 192.453125 134.058594 C 192.785156 133.890625 193.011719 134.335938 193.355469 134.332031 C 194.230469 134.320312 195.105469 134.320312 195.976562 134.339844 C 197.964844 134.390625 197.351562 125.414062 197.484375 166.910156 C 197.488281 167.390625 197.261719 167.945312 197.738281 168.359375 L 197.714844 168.335938 C 197.90625 168.46875 198.101562 168.601562 198.296875 168.730469 C 198.289062 168.71875 198.28125 168.707031 198.277344 168.695312 C 198.273438 168.714844 198.269531 168.730469 198.265625 168.75 C 199.265625 168.8125 200.265625 168.652344 201.210938 168.417969 C 203.019531 167.964844 201.65625 165.609375 202.363281 163.355469 C 202.597656 162.605469 203.480469 162.09375 204.203125 162.308594 L 204.179688 162.28125 C 204.25 162.488281 204.324219 162.417969 204.398438 162.285156 L 204.378906 162.308594 C 204.5 162.308594 204.621094 162.308594 204.738281 162.308594 L 204.722656 162.28125 C 204.789062 162.453125 204.867188 162.339844 204.945312 162.289062 L 204.929688 162.3125 C 205.046875 162.3125 205.167969 162.308594 205.285156 162.308594 L 205.269531 162.285156 C 205.339844 162.460938 205.414062 162.414062 205.488281 162.285156 L 205.46875 162.308594 C 205.671875 162.144531 205.851562 161.921875 206.082031 161.828125 C 208.035156 161.015625 205.035156 160.160156 206.589844 160.035156 C 206.824219 160.015625 206.71875 160.394531 206.742188 153.320312 C 206.746094 152.355469 207.128906 151.921875 208.09375 151.984375 C 210.074219 152.113281 212.089844 151.808594 214.007812 152.101562 C 215.617188 152.351562 215.085938 151.476562 215.089844 150.835938 C 215.105469 146.96875 215.085938 143.101562 215.085938 139.234375 C 215.085938 137.996094 216.398438 137.078125 217.503906 137.484375 C 217.347656 135.25 217.46875 132.992188 217.429688 130.738281 C 217.421875 130.4375 217.726562 130.382812 217.808594 130.160156 L 217.78125 130.175781 C 217.847656 130.105469 217.917969 130.035156 217.988281 129.964844 L 217.960938 129.992188 C 218.007812 129.96875 218.050781 129.945312 218.097656 129.917969 C 218.050781 129.871094 218.007812 129.828125 217.960938 129.78125 L 217.988281 129.804688 C 218.839844 129.1875 219.832031 129.34375 220.789062 129.304688 C 226.015625 129.082031 225.953125 129.488281 225.949219 130.519531 C 225.945312 132.421875 225.941406 134.324219 225.949219 136.222656 C 225.953125 136.816406 226.210938 137.175781 226.871094 137.058594 L 226.847656 137.082031 C 227.046875 136.867188 227.265625 137.023438 227.476562 137.050781 L 227.492188 137.019531 C 227.601562 137.925781 228.035156 136.808594 228.238281 137.140625 L 228.234375 137.125 C 228.53125 137.132812 228.488281 137.984375 229.011719 137.441406 Z M 228.988281 137.460938 "/>
</g>
<path style=" stroke:none;fill-rule:nonzero;fill:rgb(100%,95.289612%,83.918762%);fill-opacity:1;" d="M 234.214844 175.097656 C 233.863281 175.296875 233.910156 174.921875 234.113281 174.984375 C 234.152344 175 234.179688 175.058594 234.214844 175.097656 Z M 234.214844 175.097656 "/>
<path style=" stroke:none;fill-rule:nonzero;fill:rgb(100%,95.289612%,83.918762%);fill-opacity:1;" d="M 154.34375 111.757812 L 154.28125 111.726562 L 154.351562 111.707031 Z M 154.34375 111.757812 "/>
<path style=" stroke:none;fill-rule:nonzero;fill:rgb(100%,95.289612%,83.918762%);fill-opacity:1;" d="M 235.460938 161.65625 L 235.539062 161.632812 L 235.53125 161.691406 Z M 235.460938 161.65625 "/>
<path style=" stroke:none;fill-rule:nonzero;fill:rgb(100%,95.289612%,83.918762%);fill-opacity:1;" d="M 231.875 174.753906 C 231.796875 174.738281 231.667969 174.746094 231.65625 174.707031 C 231.582031 174.503906 231.699219 174.679688 231.855469 174.757812 C 231.859375 174.753906 231.875 174.753906 231.875 174.753906 Z M 231.875 174.753906 "/>
<path style=" stroke:none;fill-rule:nonzero;fill:rgb(100%,95.289612%,83.918762%);fill-opacity:1;" d="M 233.636719 174.9375 C 233.621094 174.824219 233.609375 174.710938 233.597656 174.597656 C 233.8125 174.640625 233.621094 174.683594 233.636719 174.933594 C 233.636719 174.933594 233.636719 174.9375 233.636719 174.9375 Z M 233.636719 174.9375 "/>
<path style=" stroke:none;fill-rule:nonzero;fill:rgb(100%,95.289612%,83.918762%);fill-opacity:1;" d="M 26.398438 175.808594 L 26.449219 175.832031 L 26.394531 175.851562 Z M 26.398438 175.808594 "/>
<path style=" stroke:none;fill-rule:nonzero;fill:rgb(100%,95.289612%,83.918762%);fill-opacity:1;" d="M 257.101562 91.125 C 257.300781 91.183594 257.191406 91.246094 257.101562 91.308594 C 257.101562 91.308594 257.132812 91.324219 257.132812 91.324219 C 257.128906 91.25 257.128906 91.179688 257.128906 91.109375 Z M 257.101562 91.125 "/>
<path style=" stroke:none;fill-rule:nonzero;fill:rgb(100%,95.289612%,83.918762%);fill-opacity:1;" d="M 347.5625 126.476562 C 347.578125 126.519531 347.59375 126.5625 347.609375 126.601562 C 347.648438 126.5625 347.6875 126.519531 347.726562 126.480469 C 347.726562 126.476562 347.75 126.519531 347.75 126.519531 C 347.679688 126.519531 347.605469 126.515625 347.535156 126.515625 Z M 347.5625 126.476562 "/>
<path style=" stroke:none;fill-rule:nonzero;fill:rgb(100%,95.289612%,83.918762%);fill-opacity:1;" d="M 217.808594 129.980469 C 217.804688 129.855469 217.871094 129.804688 217.988281 129.804688 C 217.988281 129.804688 217.960938 129.699219 217.960938 129.992188 C 218.003906 129.949219 217.847656 129.964844 217.78125 129.964844 Z M 217.808594 129.980469 "/>
<path style=" stroke:none;fill-rule:nonzero;fill:rgb(100%,95.289612%,83.918762%);fill-opacity:1;" d="M 217.808594 130.160156 C 217.671875 130.101562 217.660156 130.039062 217.808594 129.980469 C 217.808594 129.980469 217.78125 129.964844 217.78125 129.964844 C 217.78125 130.035156 217.78125 130.105469 217.78125 130.175781 Z M 217.808594 130.160156 "/>
<path style=" stroke:none;fill-rule:nonzero;fill:rgb(100%,95.289612%,83.918762%);fill-opacity:1;" d="M 187.292969 134.066406 C 187.285156 134.082031 187.273438 134.101562 187.265625 134.117188 C 187.238281 134.097656 187.214844 134.078125 187.1875 134.0625 C 187.257812 133.996094 187.230469 133.996094 187.292969 134.066406 Z M 187.292969 134.066406 "/>
<path style=" stroke:none;fill-rule:nonzero;fill:rgb(100%,95.289612%,83.918762%);fill-opacity:1;" d="M 226.871094 137.058594 C 226.828125 137.039062 226.78125 137.019531 226.734375 137 C 226.757812 136.980469 226.777344 136.960938 226.800781 136.941406 C 226.820312 137 226.835938 137.09375 226.871094 137.058594 Z M 226.871094 137.058594 "/>
<path style=" stroke:none;fill-rule:nonzero;fill:rgb(100%,95.289612%,83.918762%);fill-opacity:1;" d="M 227.476562 137.050781 C 227.46875 137.03125 227.457031 137.011719 227.449219 136.992188 C 227.460938 137.003906 227.476562 137.011719 227.492188 137.023438 C 227.492188 137.019531 227.476562 137.050781 227.476562 137.050781 Z M 227.476562 137.050781 "/>
<path style=" stroke:none;fill-rule:nonzero;fill:rgb(100%,95.289612%,83.918762%);fill-opacity:1;" d="M 228.238281 137.140625 C 228.304688 137.148438 228.371094 137.15625 228.4375 137.164062 C 228.425781 137.1875 228.417969 137.210938 228.410156 137.238281 C 228.351562 137.199219 228.292969 137.164062 228.234375 137.125 C 228.234375 137.121094 228.238281 137.140625 228.238281 137.140625 Z M 228.238281 137.140625 "/>
<path style=" stroke:none;fill-rule:nonzero;fill:rgb(100%,95.289612%,83.918762%);fill-opacity:1;" d="M 229.011719 137.441406 C 228.972656 137.410156 228.933594 137.375 228.898438 137.34375 C 228.929688 137.332031 228.960938 137.324219 228.996094 137.3125 C 228.992188 137.363281 228.992188 137.410156 228.988281 137.460938 C 228.988281 137.460938 229.011719 137.441406 229.011719 137.441406 Z M 229.011719 137.441406 "/>
<path style=" stroke:none;fill-rule:nonzero;fill:rgb(100%,95.289612%,83.918762%);fill-opacity:1;" d="M 204.203125 162.308594 C 204.234375 162.261719 204.261719 162.210938 204.292969 162.164062 C 204.320312 162.210938 204.351562 162.261719 204.378906 162.308594 C 204.378906 162.308594 204.472656 162.285156 204.183594 162.28125 Z M 204.203125 162.308594 "/>
<path style=" stroke:none;fill-rule:nonzero;fill:rgb(100%,95.289612%,83.918762%);fill-opacity:1;" d="M 204.742188 162.308594 C 204.804688 162.160156 204.867188 162.144531 204.929688 162.308594 C 204.929688 162.308594 204.945312 162.289062 204.945312 162.289062 C 204.871094 162.285156 204.796875 162.285156 204.722656 162.28125 Z M 204.742188 162.308594 "/>
<path style=" stroke:none;fill-rule:nonzero;fill:rgb(100%,95.289612%,83.918762%);fill-opacity:1;" d="M 205.289062 162.308594 C 205.347656 162.140625 205.410156 162.132812 205.46875 162.308594 C 205.46875 162.308594 205.5625 162.285156 205.269531 162.28125 Z M 205.289062 162.308594 "/>
<path style=" stroke:none;fill-rule:nonzero;fill:rgb(100%,95.289612%,83.918762%);fill-opacity:1;" d="M 252.902344 90.757812 C 252.949219 90.726562 252.992188 90.699219 253.039062 90.667969 C 252.992188 90.640625 252.949219 90.613281 252.902344 90.582031 C 252.902344 90.582031 252.941406 90.558594 252.941406 90.558594 C 252.941406 90.632812 252.941406 90.707031 252.941406 90.78125 Z M 252.902344 90.757812 "/>
<path style=" stroke:none;fill-rule:nonzero;fill:rgb(100%,95.289612%,83.918762%);fill-opacity:1;" d="M 197.738281 168.359375 C 197.730469 168.300781 197.71875 168.246094 197.710938 168.1875 C 197.886719 168.238281 197.722656 168.28125 197.710938 168.332031 C 197.714844 168.335938 197.738281 168.359375 197.738281 168.359375 Z M 197.738281 168.359375 "/>
<path style=" stroke:none;fill-rule:nonzero;fill:rgb(100%,95.289612%,83.918762%);fill-opacity:1;" d="M 250.238281 91.585938 C 250.238281 91.605469 250.238281 91.621094 250.242188 91.640625 C 250.230469 91.632812 250.222656 91.625 250.210938 91.613281 C 250.214844 91.613281 250.238281 91.585938 250.238281 91.585938 Z M 250.238281 91.585938 "/>
<g clip-path="url(#clip2)" clip-rule="nonzero">
<path style=" stroke:none;fill-rule:nonzero;fill:rgb(100%,95.289612%,83.918762%);fill-opacity:1;" d="M 537.277344 145.769531 C 536.441406 145.546875 535.449219 146.191406 535.449219 146.996094 C 535.425781 183.171875 535.863281 181.746094 535.296875 181.691406 C 534.996094 181.664062 534.871094 181.289062 534.847656 181 C 534.820312 180.605469 535.050781 180.171875 534.636719 179.851562 L 534.652344 179.851562 C 534.109375 179.90625 533.566406 179.964844 533.023438 180.015625 C 533.023438 180.46875 533.023438 180.917969 533.023438 181.605469 C 532.671875 180.980469 532.289062 180.804688 531.789062 180.902344 C 531.613281 180.933594 531.441406 180.882812 531.449219 180.65625 C 531.46875 180 531.335938 179.339844 531.519531 178.6875 C 531.675781 178.132812 532.121094 178.558594 532.398438 178.421875 C 532.765625 178.238281 533.394531 178.875 533.457031 178.347656 C 533.515625 177.859375 532.804688 178.167969 532.449219 178.085938 C 532 177.984375 531.609375 177.707031 531.117188 177.714844 C 530.78125 177.722656 531.109375 105.421875 531.113281 105.277344 C 531.160156 103.71875 530.726562 104.253906 529.613281 103.90625 C 529.582031 103.941406 529.628906 104.101562 529.496094 103.980469 C 529.542969 103.964844 529.589844 103.945312 529.636719 103.929688 C 529.171875 103.261719 527.632812 104.035156 526.910156 101.683594 C 526.859375 101.527344 526.753906 101.414062 526.636719 101.445312 C 526.003906 101.609375 525.566406 101.019531 524.941406 101.058594 C 524.414062 101.089844 523.675781 100.09375 523.640625 99.511719 C 523.578125 98.441406 523.84375 97.375 523.789062 96.316406 C 523.191406 84.800781 524.597656 84.476562 523.257812 81.976562 C 523.121094 81.714844 522.371094 82.195312 522.34375 82.640625 C 522.277344 83.816406 522 85.085938 522.230469 86.152344 C 522.90625 89.253906 521.773438 91.964844 522.4375 99.578125 C 522.449219 99.707031 522.714844 100.753906 521.78125 100.191406 C 521.625 100.097656 521.59375 100.148438 521.488281 100.769531 C 521.527344 100.789062 521.566406 100.804688 521.609375 100.824219 C 521.59375 100.847656 521.574219 100.867188 521.558594 100.886719 C 521.535156 100.847656 521.511719 100.808594 521.488281 100.765625 C 520.28125 101.867188 518.707031 101.011719 518.839844 101.8125 C 518.953125 102.492188 518.554688 103.136719 518.746094 103.824219 C 518.8125 104.050781 518.441406 104.074219 517.835938 103.847656 L 517.859375 103.867188 C 517.011719 104.183594 516.132812 103.945312 515.273438 104.007812 C 515.15625 104.015625 514.984375 103.898438 515.148438 103.675781 C 515.273438 103.511719 515.316406 103.285156 515.398438 103.085938 C 515.398438 103.085938 515.363281 103.109375 515.363281 103.109375 C 515.207031 103.042969 515.207031 102.972656 515.363281 102.90625 L 515.398438 102.929688 C 515.328125 102.597656 515.878906 102.667969 515.796875 102.304688 C 515.386719 102.179688 515.324219 102.839844 514.921875 102.691406 C 514.867188 102.683594 514.816406 102.683594 514.761719 102.679688 C 514.78125 102.652344 514.796875 102.628906 514.8125 102.601562 C 514.847656 102.636719 514.886719 102.671875 514.921875 102.707031 C 514.679688 102.792969 514.753906 102.351562 514.4375 102.484375 C 514.664062 103.050781 514.550781 103.257812 513.847656 103.121094 C 513.308594 103.015625 512.722656 103.164062 512.15625 103.03125 C 511.871094 102.964844 511.625 103.09375 511.554688 103.425781 C 511.484375 103.382812 511.578125 103.4375 511.652344 103.480469 C 511.609375 103.519531 511.570312 103.5625 511.527344 103.605469 L 511.554688 103.59375 C 511.59375 103.792969 512.074219 103.863281 511.832031 104.050781 C 511.105469 104.621094 510.441406 103.488281 509.957031 103.855469 C 509.652344 104.085938 509.527344 104.539062 510.003906 104.875 C 510.070312 104.921875 510.046875 109.664062 510.050781 109.75 C 510.050781 110.007812 510.050781 110.335938 509.765625 110.355469 C 509.335938 110.378906 508.539062 110.652344 509.082031 110.988281 C 507.828125 111.128906 506.6875 111.214844 505.546875 111.324219 C 504.675781 111.410156 503.832031 110.980469 502.949219 111.351562 C 502.601562 111.496094 502.429688 111.675781 502.460938 111.949219 C 503.144531 117.859375 502.421875 143.453125 502.800781 154.617188 C 501.96875 154.777344 493.609375 155.242188 493.113281 155.621094 C 492.882812 154.171875 493.226562 150.625 493.015625 148.886719 C 492.734375 146.558594 492.769531 146.285156 491.609375 146.320312 C 489.734375 146.382812 491.492188 144.65625 489.550781 144.652344 C 487.617188 144.648438 488.234375 144.507812 485.25 144.183594 C 485.253906 144.183594 485.214844 144.15625 485.214844 144.15625 L 485.261719 144.175781 C 484.796875 143.53125 485.613281 143.492188 485.722656 143.117188 C 485.445312 143.015625 485.21875 142.941406 484.820312 143.113281 C 484.132812 143.410156 483.332031 143.148438 482.582031 143.082031 C 481.863281 143.015625 482.957031 138.207031 482.28125 136.695312 C 482.027344 136.132812 481.535156 136.695312 481.148438 136.566406 C 479.992188 136.179688 478.804688 136.777344 478.703125 136.144531 C 478.644531 135.800781 477.433594 136.101562 476.988281 136.050781 C 476.65625 136.015625 476.722656 135.613281 476.699219 135.355469 C 476.605469 134.304688 476.570312 134.285156 475.53125 134.277344 C 470.878906 134.253906 473.304688 133.871094 472.367188 133.226562 C 471.964844 133.324219 472.5625 133.847656 472.082031 133.898438 C 471.335938 133.980469 472.109375 133.078125 471.445312 133.09375 C 471.3125 133.261719 471.621094 133.449219 471.582031 133.671875 C 471.542969 133.886719 471.605469 134.144531 471.261719 134.113281 C 470.609375 134.050781 470.519531 134.449219 470.582031 134.949219 C 470.710938 135.964844 469.761719 135.449219 468.921875 136.042969 C 468.035156 136.671875 467.664062 135.851562 467.171875 135.453125 C 466.855469 135.191406 467.441406 134.800781 467.164062 134.460938 C 466.691406 134.582031 467.136719 135.097656 466.78125 135.265625 C 466.519531 135.136719 466.953125 134.867188 466.613281 134.71875 C 466.515625 135.992188 465.589844 135.582031 464.851562 135.585938 C 462.503906 135.597656 461.789062 134.980469 461.785156 136.429688 C 461.738281 158.875 461.960938 174.476562 461.960938 174.476562 C 461.960938 175.289062 461.351562 174.707031 459.597656 175.082031 C 459.152344 175.175781 458.667969 174.953125 458.503906 175.695312 C 458.421875 176.070312 457.816406 175.898438 457.449219 175.917969 C 455.988281 176.003906 455.980469 175.988281 455.988281 174.511719 C 456.007812 170.414062 455.871094 166.316406 456.035156 162.21875 C 456.050781 161.855469 456.472656 159.539062 455.699219 158.292969 C 454.738281 156.746094 456.410156 154.851562 454.304688 153.09375 C 453.5625 152.472656 453.359375 151.535156 453.140625 150.726562 C 452.828125 149.554688 452.273438 148.480469 452.007812 147.308594 C 451.917969 146.910156 451.679688 146.816406 451.488281 147.277344 C 449.894531 151.183594 450.191406 151.011719 449.386719 150.882812 C 443.335938 149.917969 443.195312 151.402344 443.246094 149.023438 C 443.316406 145.597656 443.027344 142.183594 443.035156 138.757812 C 443.039062 138.453125 443.359375 138.230469 442.636719 138.191406 C 442.648438 138.164062 442.664062 138.140625 442.675781 138.113281 C 442.714844 138.144531 442.753906 138.179688 442.792969 138.210938 C 442.054688 137.71875 441.171875 137.828125 440.367188 137.628906 C 439.078125 137.308594 437.769531 137.550781 436.453125 137.585938 C 436.46875 137.101562 433.238281 137.257812 431.101562 137.375 C 428.503906 137.519531 430.039062 136.375 428.78125 135.730469 L 428.804688 135.769531 C 428.785156 135.808594 428.761719 135.851562 428.738281 135.890625 C 428.695312 135.851562 428.652344 135.808594 428.605469 135.769531 L 428.632812 135.734375 C 426.042969 133.042969 423.007812 133.699219 422.457031 133.941406 C 420.710938 134.722656 419.757812 132.945312 419.667969 134.570312 C 419.621094 135.445312 417.585938 134.667969 416.746094 134.867188 C 416.109375 135.015625 415.234375 134.472656 414.898438 135.5 C 414.808594 135.785156 414.601562 135.613281 414.433594 135.632812 C 413.011719 135.824219 413.378906 135.910156 413.355469 142.15625 C 413.285156 160.226562 413.359375 163.390625 413.214844 163.660156 C 413.078125 161.828125 410.832031 162.648438 408.03125 162.488281 C 407.613281 162.464844 407.230469 162.734375 406.773438 162.691406 C 406.449219 162.664062 406.398438 163.035156 406.398438 163.320312 C 406.398438 165.855469 406.65625 166.191406 405.714844 166.152344 C 399.6875 165.90625 402.011719 164.566406 401.496094 176.273438 C 401.460938 177.058594 401.128906 177.261719 400.488281 176.996094 C 399.960938 176.773438 399.539062 177.132812 399.046875 177.117188 C 397.816406 177.082031 398.183594 176.976562 398.03125 172.539062 C 398.027344 172.421875 397.945312 172.304688 397.777344 172.199219 C 397.777344 176.863281 397.878906 176.636719 397.570312 176.761719 C 396.011719 177.390625 396.355469 175.597656 394.367188 176.601562 C 393.714844 176.929688 393.621094 176.714844 393.628906 176.113281 C 393.644531 174.429688 393.355469 172.757812 393.460938 171.070312 C 393.472656 170.925781 393.515625 170.738281 393.257812 170.632812 C 392.972656 170.976562 393.304688 172.101562 393.234375 172.914062 C 393.148438 173.882812 393.234375 173.875 392.273438 173.679688 C 391.105469 173.445312 391.988281 175.527344 391.414062 175.574219 C 391.128906 175.601562 391.125 175.222656 391.152344 175.082031 C 391.425781 173.628906 390.167969 174.234375 390.027344 174.09375 C 389.101562 173.183594 388.074219 174.039062 387.101562 173.929688 C 385.671875 173.765625 387.320312 176.753906 386.003906 176.929688 C 386.003906 192.882812 386.007812 208.835938 385.992188 224.789062 C 385.988281 225.980469 364.257812 225.542969 751 225.542969 C 751 170.597656 752.011719 183.054688 748.625 181.691406 C 747.144531 181.097656 744.832031 181.910156 744.65625 181.34375 C 744.105469 179.5625 743.433594 181.226562 743.652344 179.921875 C 744.066406 177.472656 741.796875 180.488281 741.664062 178.25 C 741.652344 178.058594 741.835938 177.78125 741.445312 177.761719 C 741.183594 177.75 740.878906 177.78125 740.824219 177.429688 C 740.769531 177.046875 741.246094 177.175781 741.367188 176.941406 C 741.230469 176.648438 740.941406 176.71875 740.792969 176.777344 C 738.648438 177.582031 735.339844 176.523438 734.535156 177.515625 C 734.28125 177.828125 733.445312 177.710938 732.871094 177.710938 C 731.433594 177.710938 732.316406 179.246094 730.671875 179.082031 C 730.453125 179.058594 730.230469 179.082031 730.007812 179.085938 C 728.996094 179.089844 729.007812 179.089844 729.015625 180.199219 C 729.015625 180.550781 728.992188 180.992188 728.445312 180.851562 C 727.902344 180.714844 727.925781 181.449219 727.40625 181.421875 C 726.566406 181.371094 725.679688 181.5625 724.902344 181.203125 C 724.21875 180.886719 723.570312 180.996094 722.914062 181.082031 C 721.964844 181.207031 720.949219 180.710938 720.054688 181.402344 C 719.25 182.023438 720.292969 178.160156 719.699219 167.546875 C 719.691406 167.414062 719.632812 167.261719 719.773438 167.175781 C 720.53125 166.707031 720.890625 165.839844 721.722656 165.296875 C 720.035156 164.84375 719.777344 163.59375 719.820312 162.160156 C 719.898438 159.648438 718.277344 156.964844 715.929688 156.140625 C 715.589844 156.023438 715.117188 155.710938 715.296875 155.144531 C 715.382812 154.882812 715.175781 154.601562 715.089844 154.597656 C 714.261719 154.554688 714.511719 153.933594 714.53125 153.515625 C 714.574219 152.5625 714.324219 151.59375 714.691406 150.652344 C 714.746094 150.507812 713.828125 148.695312 715.652344 147.777344 C 712.90625 145.851562 714.445312 146.917969 713.484375 142.558594 C 713.117188 140.894531 710.46875 141.1875 709.566406 139.890625 C 709.050781 139.148438 709.03125 139.105469 710.015625 138.730469 C 708.722656 138.628906 709.480469 137.789062 709.007812 136.570312 C 708.8125 136.0625 708.941406 135.847656 709.421875 135.566406 C 710.1875 135.117188 710.042969 133.664062 709.261719 133.269531 C 708.703125 132.988281 708.804688 131.757812 709.339844 131.238281 C 710.015625 130.582031 710.765625 129.976562 710.910156 128.898438 C 710.964844 128.488281 711.746094 128.597656 712.003906 128.164062 C 711.972656 127.800781 710.605469 128.0625 710.859375 126.992188 C 710.917969 126.753906 710.777344 126.636719 710.539062 126.640625 C 710.503906 126.675781 710.550781 126.835938 710.417969 126.710938 C 710.464844 126.695312 710.511719 126.679688 710.558594 126.660156 C 710.777344 125.632812 708.742188 125.421875 708.871094 123.6875 C 709.121094 120.203125 707.90625 121.945312 708.242188 123.84375 C 708.542969 125.527344 705.113281 126.933594 706.542969 127.859375 C 706.136719 128.148438 705.289062 127.730469 705.246094 128.347656 C 705.21875 128.730469 705.410156 128.644531 706.191406 128.632812 C 706.191406 128.636719 706.226562 128.621094 706.226562 128.621094 L 706.167969 128.632812 C 706.316406 129.113281 706.417969 129.550781 706.71875 130.03125 C 707.246094 130.859375 708.574219 131.300781 708.257812 132.628906 C 708.1875 132.921875 708.277344 133.183594 707.808594 133.328125 C 707.050781 133.558594 706.929688 134.984375 707.558594 135.519531 C 707.828125 135.75 708.285156 135.910156 708.195312 136.324219 C 708.023438 137.078125 708.34375 137.949219 707.710938 138.585938 C 707.554688 138.75 707.320312 138.921875 707.511719 139.089844 C 708.117188 139.613281 707.640625 139.777344 707.300781 140.121094 C 705.675781 141.761719 703.320312 141.464844 703.566406 144.992188 C 703.773438 148.015625 701.121094 147.988281 702.050781 148.699219 C 703.542969 149.839844 702.347656 150.851562 702.628906 151.484375 C 703.074219 152.484375 702.808594 153.542969 702.910156 154.574219 C 702.9375 154.847656 702.664062 154.828125 702.582031 154.988281 C 702.414062 155.300781 701.519531 155.3125 702.171875 155.992188 C 702.203125 156.027344 701.925781 156.3125 701.710938 156.417969 C 699.300781 157.570312 698.152344 159.589844 697.785156 162.28125 C 697.304688 162.191406 697.621094 161.757812 697.296875 161.585938 C 697.132812 162.726562 697.382812 163.878906 696.996094 164.96875 C 696.996094 164.824219 697.1875 133.984375 697.039062 133.964844 C 696.058594 133.824219 695.167969 133.328125 694.160156 133.277344 C 692.9375 133.214844 693.457031 132.652344 693.992188 131.402344 C 692.9375 130.894531 693.078125 132.054688 692.09375 132.972656 C 691.511719 133.511719 690.816406 133.457031 690.484375 131.933594 C 690.453125 131.796875 690.4375 131.589844 690.28125 131.648438 C 689.726562 131.867188 689.199219 131.59375 688.65625 131.621094 C 688.484375 131.632812 688.292969 131.710938 688.128906 131.511719 C 687.75 131.066406 687.359375 130.628906 686.949219 131.515625 C 686.695312 132.066406 685.882812 131.039062 685.390625 131.660156 C 685.359375 131.695312 685.277344 131.742188 685.253906 131.730469 C 683.441406 130.722656 681.539062 131.644531 679.6875 131.472656 C 676.402344 131.164062 675.125 131.84375 675.503906 130.863281 C 675.570312 130.6875 675.707031 130.351562 675.273438 130.304688 C 673.792969 130.144531 675.617188 131.660156 673.273438 131.636719 C 672.007812 131.621094 672.007812 131.632812 671.902344 132.84375 C 671.886719 133.023438 671.957031 133.296875 671.664062 133.273438 C 670.855469 133.207031 670.160156 133.691406 669.332031 133.65625 C 668.246094 133.605469 667.183594 134.039062 666.074219 134.015625 C 665.53125 134.003906 665.414062 134.347656 665.414062 134.878906 C 665.515625 151.589844 665.347656 165.652344 665.253906 166.816406 C 665.28125 166.835938 665.3125 166.855469 665.339844 166.875 C 665.28125 166.871094 665.289062 166.898438 665.269531 166.800781 C 665.128906 179.355469 665.730469 179.253906 664.460938 179.269531 C 663.851562 179.277344 663.101562 178.960938 662.742188 179.933594 C 662.65625 180.164062 661.792969 180.441406 661.351562 180.105469 C 660.308594 179.304688 658.980469 180.925781 658.257812 179.667969 C 658.230469 179.621094 658.085938 179.578125 658.050781 179.605469 C 656.996094 180.421875 657.707031 179.328125 657.441406 174.203125 C 657.398438 173.332031 657.234375 172.488281 657.433594 171.605469 C 657.527344 171.203125 657.152344 171.117188 656.769531 171.109375 C 656.339844 171.097656 656.078125 171.171875 656.128906 171.675781 C 656.40625 174.601562 656.078125 177.515625 656.117188 179.386719 C 656.132812 180.179688 655.597656 180.035156 655.125 180.023438 C 654.824219 180.015625 654.796875 180.019531 654.820312 179.453125 C 654.953125 176.242188 655.011719 173.03125 655.015625 169.816406 C 655.015625 168.875 655.554688 164.164062 654.722656 163.660156 C 654.445312 163.492188 654.101562 163.488281 653.773438 163.488281 C 651.847656 163.488281 649.921875 163.351562 648 163.191406 C 646.511719 163.066406 644.46875 163.273438 643.058594 162.828125 C 642.445312 162.632812 642.40625 162.339844 642.277344 161.78125 C 642.042969 160.773438 642.105469 159.640625 642.085938 158.613281 C 641.992188 152.976562 642.132812 147.328125 642.160156 141.691406 C 642.210938 131.234375 642.179688 120.777344 642.082031 110.320312 C 641.855469 85.367188 643.085938 86.46875 641.160156 85.476562 C 639.890625 84.824219 638.554688 85.378906 637.277344 85.160156 C 635.578125 84.867188 634.179688 85.660156 632.726562 86.304688 C 632.457031 86.027344 632.777344 85.570312 632.40625 85.347656 C 632.039062 85.554688 632.75 86.726562 631.230469 86.964844 C 630.386719 87.09375 629.625 87.757812 628.828125 88.179688 C 628.539062 88.332031 628.625 88.609375 628.621094 88.835938 C 628.574219 92.90625 628.828125 93.265625 628.023438 92.675781 C 627.621094 92.378906 627.984375 93.320312 627.496094 93.265625 C 627.15625 93.226562 627.296875 92.921875 627.296875 92.734375 C 627.285156 90.550781 627.261719 88.367188 627.304688 86.183594 C 627.339844 84.488281 626.226562 85.367188 625.78125 83.796875 C 625.246094 81.914062 625.207031 81.1875 625.308594 67.640625 C 625.324219 65.242188 623.824219 67.335938 623.054688 63.109375 C 622.929688 62.414062 622.898438 61.703125 623.136719 61.003906 C 623.769531 59.152344 622.253906 56.703125 623.242188 54.617188 C 623.332031 54.433594 623.378906 54.140625 623.292969 53.976562 C 622.421875 52.3125 623.457031 43.035156 622.320312 43.023438 C 621.582031 43.019531 622.382812 44.023438 621.65625 45.285156 C 621.359375 45.804688 621.648438 46.34375 621.648438 46.875 C 621.652344 48.808594 621.914062 50.789062 621.574219 52.660156 C 621.257812 54.40625 621.980469 56.054688 621.609375 57.71875 C 621.050781 60.25 621.917969 64.855469 620.289062 64.933594 C 618.976562 64.996094 619.421875 66.097656 619.027344 66.246094 C 617.734375 66.726562 618.199219 66.898438 618.125 77.480469 C 618.109375 79.625 618 81.765625 618.03125 83.910156 C 618.039062 84.570312 617.808594 84.941406 617.273438 85.09375 C 616.5 85.316406 616.667969 85.5 616.640625 89.703125 C 616.640625 89.886719 616.738281 90.109375 616.457031 90.171875 C 616.023438 90.269531 616.21875 89.496094 615.792969 89.648438 C 614.886719 89.972656 613.925781 89.824219 612.996094 89.898438 C 611.957031 89.988281 610.9375 90.289062 609.871094 90.164062 C 609.238281 90.085938 608.664062 90.480469 608.050781 90.613281 C 606.515625 90.949219 607.351562 92.707031 607.160156 100.429688 C 607.125 101.957031 606.90625 120.582031 607.1875 121.488281 C 607.195312 121.484375 607.203125 121.476562 607.210938 121.46875 C 607.195312 121.480469 607.183594 121.492188 607.167969 121.503906 C 607.183594 121.613281 607.195312 121.726562 607.210938 121.839844 C 607.246094 121.871094 607.40625 121.828125 607.28125 121.957031 C 607.265625 121.910156 607.25 121.863281 607.234375 121.816406 C 606.9375 122.375 606.304688 122.226562 605.871094 122.339844 C 604.652344 122.652344 603.386719 122.695312 602.183594 122.058594 C 601.175781 125.203125 601.417969 125.089844 601.417969 139.691406 C 601.417969 140.742188 601.464844 141.175781 601.070312 141.277344 C 600.660156 141.382812 600.234375 141.191406 600.097656 140.691406 C 599.96875 140.21875 599.828125 140.554688 599.683594 140.675781 C 599.726562 140.65625 599.769531 140.632812 599.8125 140.613281 C 599.820312 140.640625 599.824219 140.667969 599.828125 140.691406 C 599.78125 140.683594 599.734375 140.679688 599.683594 140.671875 C 599.421875 140.863281 599.875 141.066406 599.65625 141.332031 C 599.519531 141.5 599.484375 141.671875 599.273438 141.515625 C 597.832031 140.457031 596.851562 141.6875 595.679688 142.183594 C 595.519531 142.042969 595.675781 141.796875 595.601562 141.605469 C 595.429688 141.132812 594.765625 141.230469 594.75 141.644531 C 594.730469 142.234375 594.613281 142.824219 594.625 143.410156 C 594.632812 143.96875 594.320312 144.175781 593.878906 144.1875 C 589.75 144.292969 590.152344 144.238281 590.121094 143.742188 C 590.011719 141.902344 590.101562 141.816406 589.75 141.636719 C 589.574219 141.542969 589.378906 141.707031 589.339844 141.824219 C 589.199219 142.242188 588.925781 142.046875 588.648438 142.074219 C 588.128906 142.128906 587.675781 141.488281 587.082031 142.054688 C 586.765625 142.351562 586.242188 141.726562 585.691406 141.953125 C 585.488281 142.039062 585.488281 141.449219 585.640625 141.042969 C 584.210938 142.4375 583.90625 144.058594 584.253906 145.949219 C 583.804688 145.792969 583.621094 145.644531 583.214844 145.945312 C 582.761719 146.277344 581.890625 146.054688 581.203125 146.042969 C 581.039062 146.039062 581.011719 146.167969 580.859375 143.667969 C 580.824219 143.144531 580.445312 143.066406 580.242188 143.382812 C 579.949219 143.847656 579.59375 143.714844 579.234375 143.710938 C 577.882812 143.710938 576.542969 143.613281 575.242188 143.207031 C 575.164062 143.1875 575.011719 143.214844 575.007812 143.195312 C 574.78125 142.144531 574.195312 142.820312 573.671875 142.839844 C 572.691406 142.878906 571.675781 143.15625 570.710938 142.660156 C 570.410156 142.503906 570.199219 142.914062 569.886719 142.910156 C 569.085938 142.898438 568.285156 142.898438 567.484375 142.917969 C 565.664062 142.960938 566.230469 134.761719 566.105469 172.683594 C 566.105469 173.121094 566.308594 173.628906 565.875 174.007812 L 565.898438 173.984375 C 565.71875 174.105469 565.542969 174.226562 565.363281 174.347656 C 565.371094 174.335938 565.375 174.324219 565.382812 174.316406 C 565.386719 174.332031 565.390625 174.347656 565.390625 174.363281 C 564.476562 174.421875 563.5625 174.273438 562.699219 174.058594 C 561.042969 173.648438 562.289062 171.496094 561.640625 169.433594 C 561.425781 168.75 560.617188 168.28125 559.960938 168.476562 L 559.980469 168.453125 C 559.914062 168.644531 559.847656 168.578125 559.78125 168.457031 L 559.796875 168.480469 C 559.6875 168.476562 559.578125 168.476562 559.46875 168.476562 L 559.484375 168.453125 C 559.421875 168.609375 559.351562 168.507812 559.28125 168.460938 L 559.292969 168.480469 C 559.183594 168.480469 559.078125 168.480469 558.96875 168.480469 L 558.984375 168.453125 C 558.921875 168.617188 558.851562 168.574219 558.785156 168.457031 L 558.800781 168.480469 C 558.613281 168.328125 558.449219 168.125 558.238281 168.039062 C 556.453125 167.296875 559.195312 166.515625 557.777344 166.398438 C 557.5625 166.378906 557.660156 166.726562 557.636719 160.261719 C 557.632812 159.382812 557.28125 158.984375 556.398438 159.042969 C 554.589844 159.160156 552.742188 158.878906 550.988281 159.148438 C 549.511719 159.375 550 158.578125 550 157.992188 C 549.980469 154.457031 550 150.921875 550 147.390625 C 550 146.257812 548.796875 145.421875 547.789062 145.789062 C 547.933594 143.75 547.820312 141.6875 547.855469 139.625 C 547.863281 139.347656 547.585938 139.300781 547.507812 139.097656 L 547.535156 139.113281 C 547.472656 139.046875 547.410156 138.984375 547.34375 138.921875 L 547.371094 138.945312 C 547.328125 138.921875 547.289062 138.898438 547.246094 138.875 C 547.289062 138.835938 547.328125 138.792969 547.371094 138.75 L 547.347656 138.773438 C 546.566406 138.207031 545.660156 138.351562 544.78125 138.316406 C 540 138.109375 540.058594 138.484375 540.058594 139.425781 C 540.066406 141.164062 540.066406 142.902344 540.058594 144.640625 C 540.054688 145.179688 539.820312 145.507812 539.214844 145.402344 L 539.238281 145.421875 C 539.054688 145.226562 538.855469 145.371094 538.664062 145.394531 L 538.648438 145.367188 C 538.550781 146.195312 538.152344 145.171875 537.96875 145.476562 L 537.96875 145.460938 C 537.695312 145.46875 537.738281 146.246094 537.257812 145.753906 Z M 537.277344 145.769531 "/>
</g>
<path style=" stroke:none;fill-rule:nonzero;fill:rgb(100%,95.289612%,83.918762%);fill-opacity:1;" d="M 532.496094 180.167969 C 532.816406 180.347656 532.777344 180.003906 532.589844 180.0625 C 532.554688 180.074219 532.527344 180.128906 532.496094 180.167969 Z M 532.496094 180.167969 "/>
<path style=" stroke:none;fill-rule:nonzero;fill:rgb(100%,95.289612%,83.918762%);fill-opacity:1;" d="M 605.582031 122.28125 L 605.640625 122.25 L 605.574219 122.234375 Z M 605.582031 122.28125 "/>
<path style=" stroke:none;fill-rule:nonzero;fill:rgb(100%,95.289612%,83.918762%);fill-opacity:1;" d="M 531.359375 167.882812 L 531.285156 167.859375 L 531.292969 167.914062 Z M 531.359375 167.882812 "/>
<path style=" stroke:none;fill-rule:nonzero;fill:rgb(100%,95.289612%,83.918762%);fill-opacity:1;" d="M 534.636719 179.851562 C 534.707031 179.835938 534.828125 179.84375 534.839844 179.808594 C 534.90625 179.621094 534.800781 179.785156 534.65625 179.851562 C 534.652344 179.851562 534.636719 179.851562 534.636719 179.851562 Z M 534.636719 179.851562 "/>
<path style=" stroke:none;fill-rule:nonzero;fill:rgb(100%,95.289612%,83.918762%);fill-opacity:1;" d="M 533.027344 180.019531 C 533.039062 179.914062 533.050781 179.8125 533.0625 179.707031 C 532.863281 179.75 533.039062 179.785156 533.023438 180.015625 C 533.023438 180.015625 533.027344 180.019531 533.027344 180.019531 Z M 533.027344 180.019531 "/>
<path style=" stroke:none;fill-rule:nonzero;fill:rgb(100%,95.289612%,83.918762%);fill-opacity:1;" d="M 722.65625 180.8125 L 722.609375 180.835938 L 722.660156 180.851562 Z M 722.65625 180.8125 "/>
<path style=" stroke:none;fill-rule:nonzero;fill:rgb(100%,95.289612%,83.918762%);fill-opacity:1;" d="M 511.554688 103.425781 C 511.371094 103.480469 511.472656 103.535156 511.554688 103.59375 C 511.554688 103.59375 511.527344 103.605469 511.527344 103.605469 C 511.527344 103.539062 511.527344 103.476562 511.53125 103.410156 Z M 511.554688 103.425781 "/>
<path style=" stroke:none;fill-rule:nonzero;fill:rgb(100%,95.289612%,83.918762%);fill-opacity:1;" d="M 428.777344 135.730469 C 428.765625 135.769531 428.75 135.808594 428.738281 135.847656 C 428.703125 135.808594 428.667969 135.769531 428.628906 135.734375 C 428.628906 135.734375 428.605469 135.769531 428.605469 135.769531 C 428.671875 135.769531 428.738281 135.769531 428.804688 135.769531 Z M 428.777344 135.730469 "/>
<path style=" stroke:none;fill-rule:nonzero;fill:rgb(100%,95.289612%,83.918762%);fill-opacity:1;" d="M 547.507812 138.933594 C 547.511719 138.820312 547.453125 138.773438 547.347656 138.773438 C 547.347656 138.773438 547.367188 138.679688 547.367188 138.945312 C 547.332031 138.90625 547.472656 138.917969 547.535156 138.917969 Z M 547.507812 138.933594 "/>
<path style=" stroke:none;fill-rule:nonzero;fill:rgb(100%,95.289612%,83.918762%);fill-opacity:1;" d="M 547.507812 139.097656 C 547.636719 139.042969 547.644531 138.988281 547.507812 138.933594 C 547.507812 138.933594 547.535156 138.917969 547.535156 138.917969 C 547.535156 138.984375 547.535156 139.046875 547.535156 139.113281 Z M 547.507812 139.097656 "/>
<path style=" stroke:none;fill-rule:nonzero;fill:rgb(100%,95.289612%,83.918762%);fill-opacity:1;" d="M 575.429688 142.667969 C 575.441406 142.683594 575.449219 142.699219 575.457031 142.714844 C 575.480469 142.695312 575.503906 142.679688 575.527344 142.664062 C 575.464844 142.605469 575.492188 142.601562 575.429688 142.667969 Z M 575.429688 142.667969 "/>
<path style=" stroke:none;fill-rule:nonzero;fill:rgb(100%,95.289612%,83.918762%);fill-opacity:1;" d="M 539.214844 145.398438 C 539.257812 145.382812 539.296875 145.367188 539.339844 145.347656 C 539.320312 145.328125 539.300781 145.3125 539.28125 145.292969 C 539.261719 145.347656 539.25 145.433594 539.214844 145.398438 Z M 539.214844 145.398438 "/>
<path style=" stroke:none;fill-rule:nonzero;fill:rgb(100%,95.289612%,83.918762%);fill-opacity:1;" d="M 538.664062 145.394531 C 538.671875 145.375 538.679688 145.359375 538.6875 145.339844 C 538.675781 145.351562 538.664062 145.359375 538.648438 145.367188 C 538.648438 145.367188 538.664062 145.394531 538.664062 145.394531 Z M 538.664062 145.394531 "/>
<path style=" stroke:none;fill-rule:nonzero;fill:rgb(100%,95.289612%,83.918762%);fill-opacity:1;" d="M 537.964844 145.476562 C 537.90625 145.484375 537.84375 145.488281 537.785156 145.496094 C 537.792969 145.519531 537.800781 145.542969 537.808594 145.5625 C 537.859375 145.53125 537.914062 145.5 537.96875 145.460938 C 537.96875 145.460938 537.964844 145.476562 537.964844 145.476562 Z M 537.964844 145.476562 "/>
<path style=" stroke:none;fill-rule:nonzero;fill:rgb(100%,95.289612%,83.918762%);fill-opacity:1;" d="M 537.257812 145.75 C 537.292969 145.722656 537.328125 145.691406 537.363281 145.664062 C 537.332031 145.652344 537.304688 145.644531 537.273438 145.632812 C 537.273438 145.679688 537.277344 145.722656 537.277344 145.769531 C 537.277344 145.769531 537.257812 145.75 537.257812 145.75 Z M 537.257812 145.75 "/>
<path style=" stroke:none;fill-rule:nonzero;fill:rgb(100%,95.289612%,83.918762%);fill-opacity:1;" d="M 559.960938 168.476562 C 559.933594 168.433594 559.90625 168.390625 559.878906 168.34375 C 559.851562 168.390625 559.824219 168.433594 559.796875 168.476562 C 559.796875 168.476562 559.710938 168.457031 559.976562 168.453125 Z M 559.960938 168.476562 "/>
<path style=" stroke:none;fill-rule:nonzero;fill:rgb(100%,95.289612%,83.918762%);fill-opacity:1;" d="M 559.46875 168.476562 C 559.410156 168.34375 559.351562 168.328125 559.292969 168.480469 C 559.292969 168.480469 559.28125 168.460938 559.28125 168.460938 C 559.347656 168.457031 559.414062 168.453125 559.484375 168.453125 Z M 559.46875 168.476562 "/>
<path style=" stroke:none;fill-rule:nonzero;fill:rgb(100%,95.289612%,83.918762%);fill-opacity:1;" d="M 558.964844 168.476562 C 558.910156 168.324219 558.855469 168.316406 558.800781 168.476562 C 558.800781 168.476562 558.714844 168.457031 558.984375 168.453125 Z M 558.964844 168.476562 "/>
<path style=" stroke:none;fill-rule:nonzero;fill:rgb(100%,95.289612%,83.918762%);fill-opacity:1;" d="M 515.398438 103.085938 C 515.355469 103.0625 515.3125 103.035156 515.273438 103.007812 C 515.3125 102.980469 515.355469 102.953125 515.398438 102.929688 C 515.398438 102.929688 515.363281 102.90625 515.363281 102.90625 C 515.363281 102.972656 515.363281 103.042969 515.363281 103.109375 Z M 515.398438 103.085938 "/>
<path style=" stroke:none;fill-rule:nonzero;fill:rgb(100%,95.289612%,83.918762%);fill-opacity:1;" d="M 565.875 174.003906 C 565.882812 173.953125 565.890625 173.902344 565.898438 173.851562 C 565.738281 173.898438 565.886719 173.9375 565.898438 173.980469 C 565.894531 173.984375 565.875 174.003906 565.875 174.003906 Z M 565.875 174.003906 "/>
<path style=" stroke:none;fill-rule:nonzero;fill:rgb(100%,95.289612%,83.918762%);fill-opacity:1;" d="M 517.835938 103.847656 C 517.835938 103.863281 517.832031 103.878906 517.832031 103.894531 C 517.839844 103.886719 517.851562 103.882812 517.859375 103.871094 C 517.855469 103.867188 517.835938 103.847656 517.835938 103.847656 Z M 517.835938 103.847656 "/>
<g clip-path="url(#clip3)" clip-rule="nonzero">
<path style=" stroke:none;fill-rule:nonzero;fill:rgb(100%,95.289612%,83.918762%);fill-opacity:1;" d="M 866.25 145.019531 C 865.414062 144.796875 864.421875 145.441406 864.421875 146.246094 C 864.398438 182.421875 864.835938 180.996094 864.269531 180.941406 C 863.96875 180.914062 863.839844 180.539062 863.820312 180.25 C 863.792969 179.855469 864.023438 179.421875 863.609375 179.101562 L 863.625 179.101562 C 863.082031 179.15625 862.539062 179.214844 861.996094 179.265625 C 861.996094 179.71875 861.996094 180.167969 861.996094 180.855469 C 861.644531 180.230469 861.261719 180.054688 860.761719 180.152344 C 860.585938 180.183594 860.414062 180.132812 860.421875 179.90625 C 860.441406 179.25 860.308594 178.589844 860.492188 177.9375 C 860.644531 177.382812 861.09375 177.808594 861.371094 177.671875 C 861.738281 177.488281 862.367188 178.125 862.429688 177.597656 C 862.488281 177.109375 861.777344 177.417969 861.421875 177.335938 C 860.972656 177.234375 860.582031 176.957031 860.085938 176.964844 C 859.753906 176.972656 860.082031 104.671875 860.085938 104.527344 C 860.132812 102.96875 859.699219 103.503906 858.585938 103.15625 C 858.554688 103.191406 858.601562 103.351562 858.46875 103.230469 C 858.515625 103.214844 858.5625 103.195312 858.609375 103.179688 C 858.140625 102.511719 856.605469 103.285156 855.882812 100.933594 C 855.832031 100.777344 855.726562 100.664062 855.609375 100.695312 C 854.976562 100.859375 854.539062 100.269531 853.914062 100.308594 C 853.386719 100.339844 852.648438 99.34375 852.613281 98.761719 C 852.546875 97.691406 852.8125 96.625 852.761719 95.566406 C 852.164062 84.050781 853.570312 83.726562 852.230469 81.226562 C 852.089844 80.964844 851.34375 81.445312 851.316406 81.890625 C 851.25 83.066406 850.972656 84.335938 851.203125 85.402344 C 851.878906 88.503906 850.746094 91.214844 851.410156 98.828125 C 851.421875 98.957031 851.683594 100.003906 850.753906 99.441406 C 850.597656 99.347656 850.566406 99.398438 850.460938 100.019531 C 850.5 100.039062 850.539062 100.054688 850.582031 100.074219 C 850.566406 100.097656 850.546875 100.117188 850.53125 100.136719 C 850.507812 100.097656 850.484375 100.058594 850.460938 100.015625 C 849.253906 101.117188 847.679688 100.261719 847.8125 101.0625 C 847.925781 101.742188 847.527344 102.386719 847.71875 103.074219 C 847.785156 103.300781 847.414062 103.324219 846.808594 103.097656 L 846.828125 103.117188 C 845.984375 103.433594 845.105469 103.195312 844.246094 103.257812 C 844.128906 103.265625 843.957031 103.148438 844.121094 102.925781 C 844.246094 102.761719 844.289062 102.535156 844.371094 102.335938 C 844.371094 102.335938 844.335938 102.359375 844.335938 102.359375 C 844.179688 102.292969 844.179688 102.222656 844.335938 102.15625 L 844.371094 102.179688 C 844.300781 101.847656 844.851562 101.917969 844.769531 101.554688 C 844.359375 101.429688 844.296875 102.089844 843.890625 101.941406 C 843.839844 101.933594 843.785156 101.933594 843.734375 101.929688 C 843.75 101.902344 843.769531 101.878906 843.785156 101.851562 C 843.820312 101.886719 843.859375 101.921875 843.894531 101.957031 C 843.652344 102.042969 843.726562 101.601562 843.410156 101.734375 C 843.636719 102.300781 843.523438 102.507812 842.820312 102.371094 C 842.28125 102.265625 841.695312 102.414062 841.128906 102.28125 C 840.84375 102.214844 840.597656 102.34375 840.527344 102.675781 C 840.457031 102.632812 840.550781 102.6875 840.625 102.730469 C 840.582031 102.769531 840.542969 102.8125 840.5 102.855469 L 840.527344 102.84375 C 840.566406 103.042969 841.046875 103.113281 840.804688 103.300781 C 840.078125 103.871094 839.414062 102.738281 838.929688 103.105469 C 838.621094 103.335938 838.5 103.789062 838.972656 104.125 C 839.042969 104.171875 839.019531 108.914062 839.019531 109 C 839.023438 109.257812 839.023438 109.585938 838.738281 109.605469 C 838.308594 109.628906 837.511719 109.902344 838.054688 110.238281 C 836.800781 110.378906 835.660156 110.464844 834.519531 110.574219 C 833.648438 110.660156 832.804688 110.230469 831.921875 110.601562 C 831.574219 110.746094 831.402344 110.925781 831.433594 111.199219 C 832.117188 117.109375 831.394531 142.703125 831.773438 153.867188 C 830.941406 154.027344 822.582031 154.492188 822.085938 154.871094 C 821.851562 153.421875 822.199219 149.875 821.988281 148.136719 C 821.707031 145.808594 821.742188 145.535156 820.582031 145.570312 C 818.707031 145.632812 820.460938 143.90625 818.519531 143.902344 C 816.589844 143.898438 817.207031 143.757812 814.222656 143.433594 C 814.222656 143.433594 814.1875 143.40625 814.1875 143.40625 L 814.234375 143.425781 C 813.769531 142.78125 814.585938 142.742188 814.695312 142.367188 C 814.414062 142.265625 814.191406 142.191406 813.792969 142.363281 C 813.105469 142.660156 812.304688 142.398438 811.554688 142.332031 C 810.835938 142.265625 811.929688 137.457031 811.25 135.945312 C 811 135.382812 810.507812 135.945312 810.121094 135.816406 C 808.960938 135.429688 807.777344 136.027344 807.675781 135.394531 C 807.617188 135.050781 806.40625 135.351562 805.960938 135.300781 C 805.628906 135.265625 805.695312 134.863281 805.671875 134.605469 C 805.578125 133.554688 805.542969 133.535156 804.503906 133.527344 C 799.851562 133.503906 802.277344 133.121094 801.335938 132.476562 C 800.9375 132.574219 801.535156 133.097656 801.054688 133.148438 C 800.308594 133.230469 801.082031 132.328125 800.417969 132.34375 C 800.285156 132.511719 800.59375 132.699219 800.554688 132.921875 C 800.515625 133.136719 800.574219 133.394531 800.230469 133.363281 C 799.582031 133.300781 799.492188 133.699219 799.554688 134.199219 C 799.683594 135.214844 798.734375 134.699219 797.894531 135.292969 C 797.007812 135.921875 796.636719 135.101562 796.144531 134.703125 C 795.824219 134.441406 796.410156 134.050781 796.136719 133.710938 C 795.664062 133.832031 796.109375 134.347656 795.75 134.515625 C 795.492188 134.386719 795.925781 134.117188 795.585938 133.96875 C 795.488281 135.242188 794.5625 134.832031 793.824219 134.835938 C 791.476562 134.847656 790.761719 134.230469 790.757812 135.679688 C 790.710938 158.125 790.933594 173.726562 790.933594 173.726562 C 790.933594 174.539062 790.324219 173.957031 788.570312 174.332031 C 788.125 174.425781 787.640625 174.203125 787.476562 174.945312 C 787.394531 175.320312 786.789062 175.148438 786.421875 175.167969 C 784.960938 175.253906 784.953125 175.238281 784.960938 173.761719 C 784.980469 169.664062 784.839844 165.566406 785.007812 161.46875 C 785.023438 161.105469 785.445312 158.789062 784.671875 157.542969 C 783.710938 155.996094 785.382812 154.101562 783.277344 152.34375 C 782.53125 151.722656 782.332031 150.785156 782.113281 149.976562 C 781.800781 148.804688 781.246094 147.730469 780.980469 146.558594 C 780.890625 146.160156 780.652344 146.066406 780.460938 146.527344 C 778.867188 150.433594 779.164062 150.261719 778.359375 150.132812 C 772.308594 149.167969 772.167969 150.652344 772.21875 148.273438 C 772.289062 144.847656 772 141.433594 772.007812 138.007812 C 772.007812 137.703125 772.332031 137.480469 771.609375 137.441406 C 771.621094 137.414062 771.632812 137.390625 771.648438 137.363281 C 771.6875 137.394531 771.726562 137.429688 771.761719 137.460938 C 771.027344 136.96875 770.144531 137.078125 769.339844 136.878906 C 768.050781 136.558594 766.742188 136.800781 765.425781 136.835938 C 765.441406 136.351562 762.207031 136.507812 760.074219 136.625 C 757.476562 136.769531 759.007812 135.625 757.753906 134.980469 L 757.777344 135.019531 C 757.757812 135.058594 757.734375 135.101562 757.710938 135.140625 C 757.667969 135.101562 757.625 135.058594 757.578125 135.019531 L 757.601562 134.984375 C 755.015625 132.292969 751.976562 132.949219 751.429688 133.191406 C 749.683594 133.972656 748.730469 132.195312 748.640625 133.820312 C 748.59375 134.695312 746.558594 133.917969 745.71875 134.117188 C 745.082031 134.265625 744.207031 133.722656 743.871094 134.75 C 743.78125 135.035156 743.574219 134.863281 743.40625 134.882812 C 741.984375 135.074219 742.351562 135.160156 742.328125 141.40625 C 742.257812 159.476562 742.332031 162.640625 742.1875 162.910156 C 742.050781 161.078125 739.804688 161.898438 737.003906 161.738281 C 736.585938 161.714844 736.203125 161.984375 735.742188 161.941406 C 735.421875 161.914062 735.371094 162.285156 735.371094 162.570312 C 735.371094 165.105469 735.625 165.441406 734.6875 165.402344 C 728.660156 165.15625 730.984375 163.816406 730.46875 175.523438 C 730.433594 176.308594 730.101562 176.511719 729.460938 176.246094 C 728.933594 176.023438 728.511719 176.382812 728.019531 176.367188 C 726.789062 176.332031 727.15625 176.226562 727.003906 171.789062 C 727 171.671875 726.917969 171.554688 726.75 171.449219 C 726.75 176.113281 726.851562 175.886719 726.542969 176.011719 C 724.984375 176.640625 725.328125 174.847656 723.339844 175.851562 C 722.683594 176.179688 722.59375 175.964844 722.597656 175.363281 C 722.617188 173.679688 722.328125 172.007812 722.433594 170.320312 C 722.445312 170.175781 722.488281 169.988281 722.230469 169.882812 C 721.941406 170.226562 722.273438 171.351562 722.207031 172.164062 C 722.121094 173.132812 722.203125 173.125 721.246094 172.929688 C 720.078125 172.695312 720.960938 174.777344 720.386719 174.824219 C 720.101562 174.851562 720.097656 174.472656 720.121094 174.332031 C 720.398438 172.878906 719.140625 173.484375 719 173.34375 C 718.074219 172.433594 717.046875 173.289062 716.074219 173.179688 C 714.644531 173.015625 716.292969 176.003906 714.976562 176.179688 C 714.976562 192.132812 714.980469 208.085938 714.960938 224.039062 C 714.960938 225.230469 693.230469 224.792969 1079.972656 224.792969 C 1079.972656 169.847656 1080.984375 182.304688 1077.597656 180.941406 C 1076.117188 180.347656 1073.800781 181.160156 1073.628906 180.59375 C 1073.078125 178.8125 1072.40625 180.476562 1072.625 179.171875 C 1073.039062 176.722656 1070.769531 179.738281 1070.636719 177.5 C 1070.625 177.308594 1070.808594 177.03125 1070.417969 177.011719 C 1070.15625 177 1069.851562 177.03125 1069.796875 176.679688 C 1069.742188 176.296875 1070.21875 176.425781 1070.339844 176.191406 C 1070.203125 175.898438 1069.914062 175.96875 1069.765625 176.027344 C 1067.621094 176.832031 1064.3125 175.773438 1063.507812 176.765625 C 1063.253906 177.078125 1062.417969 176.960938 1061.84375 176.960938 C 1060.40625 176.960938 1061.289062 178.496094 1059.644531 178.332031 C 1059.425781 178.308594 1059.203125 178.332031 1058.980469 178.335938 C 1057.96875 178.339844 1057.980469 178.339844 1057.988281 179.449219 C 1057.988281 179.800781 1057.964844 180.242188 1057.414062 180.101562 C 1056.875 179.964844 1056.898438 180.699219 1056.378906 180.671875 C 1055.539062 180.621094 1054.652344 180.8125 1053.875 180.453125 C 1053.191406 180.136719 1052.542969 180.246094 1051.886719 180.332031 C 1050.9375 180.457031 1049.921875 179.960938 1049.027344 180.652344 C 1048.222656 181.273438 1049.265625 177.410156 1048.671875 166.796875 C 1048.664062 166.664062 1048.605469 166.511719 1048.746094 166.425781 C 1049.503906 165.957031 1049.863281 165.089844 1050.695312 164.546875 C 1049.007812 164.09375 1048.75 162.84375 1048.792969 161.410156 C 1048.871094 158.898438 1047.25 156.214844 1044.902344 155.390625 C 1044.5625 155.273438 1044.089844 154.960938 1044.269531 154.394531 C 1044.351562 154.132812 1044.148438 153.851562 1044.0625 153.847656 C 1043.234375 153.804688 1043.484375 153.183594 1043.503906 152.765625 C 1043.546875 151.8125 1043.296875 150.84375 1043.660156 149.902344 C 1043.71875 149.757812 1042.800781 147.945312 1044.625 147.027344 C 1041.878906 145.101562 1043.417969 146.167969 1042.457031 141.808594 C 1042.089844 140.144531 1039.441406 140.4375 1038.539062 139.140625 C 1038.019531 138.398438 1038.003906 138.355469 1038.988281 137.980469 C 1037.695312 137.878906 1038.453125 137.039062 1037.980469 135.820312 C 1037.785156 135.3125 1037.914062 135.097656 1038.390625 134.816406 C 1039.160156 134.367188 1039.015625 132.914062 1038.230469 132.519531 C 1037.675781 132.238281 1037.777344 131.007812 1038.308594 130.488281 C 1038.988281 129.832031 1039.738281 129.226562 1039.882812 128.148438 C 1039.9375 127.738281 1040.714844 127.847656 1040.976562 127.414062 C 1040.945312 127.050781 1039.578125 127.3125 1039.832031 126.242188 C 1039.890625 126.003906 1039.75 125.886719 1039.507812 125.890625 C 1039.476562 125.925781 1039.523438 126.085938 1039.390625 125.960938 C 1039.4375 125.945312 1039.484375 125.929688 1039.53125 125.910156 C 1039.75 124.882812 1037.714844 124.671875 1037.84375 122.9375 C 1038.09375 119.453125 1036.878906 121.195312 1037.214844 123.09375 C 1037.511719 124.777344 1034.082031 126.183594 1035.515625 127.109375 C 1035.109375 127.398438 1034.257812 126.980469 1034.21875 127.597656 C 1034.191406 127.980469 1034.382812 127.894531 1035.164062 127.882812 C 1035.164062 127.886719 1035.199219 127.871094 1035.199219 127.871094 L 1035.140625 127.882812 C 1035.289062 128.363281 1035.390625 128.800781 1035.691406 129.28125 C 1036.21875 130.109375 1037.546875 130.550781 1037.230469 131.878906 C 1037.160156 132.171875 1037.25 132.433594 1036.78125 132.578125 C 1036.023438 132.808594 1035.902344 134.234375 1036.53125 134.769531 C 1036.800781 135 1037.257812 135.160156 1037.164062 135.574219 C 1036.996094 136.328125 1037.316406 137.199219 1036.683594 137.835938 C 1036.523438 138 1036.289062 138.171875 1036.484375 138.339844 C 1037.089844 138.863281 1036.613281 139.027344 1036.273438 139.371094 C 1034.648438 141.011719 1032.292969 140.714844 1032.539062 144.242188 C 1032.746094 147.265625 1030.09375 147.238281 1031.023438 147.949219 C 1032.515625 149.089844 1031.320312 150.101562 1031.601562 150.734375 C 1032.046875 151.734375 1031.78125 152.792969 1031.882812 153.824219 C 1031.90625 154.097656 1031.636719 154.078125 1031.554688 154.238281 C 1031.386719 154.550781 1030.492188 154.5625 1031.144531 155.242188 C 1031.175781 155.277344 1030.898438 155.5625 1030.679688 155.667969 C 1028.273438 156.820312 1027.125 158.839844 1026.757812 161.53125 C 1026.277344 161.441406 1026.59375 161.007812 1026.269531 160.835938 C 1026.105469 161.976562 1026.351562 163.128906 1025.96875 164.21875 C 1025.96875 164.074219 1026.160156 133.234375 1026.011719 133.214844 C 1025.03125 133.074219 1024.140625 132.578125 1023.132812 132.527344 C 1021.90625 132.464844 1022.429688 131.902344 1022.960938 130.652344 C 1021.910156 130.144531 1022.050781 131.304688 1021.066406 132.222656 C 1020.484375 132.761719 1019.789062 132.707031 1019.457031 131.183594 C 1019.425781 131.046875 1019.40625 130.839844 1019.253906 130.898438 C 1018.699219 131.117188 1018.171875 130.84375 1017.628906 130.871094 C 1017.457031 130.882812 1017.265625 130.960938 1017.101562 130.761719 C 1016.722656 130.316406 1016.332031 129.878906 1015.921875 130.765625 C 1015.667969 131.316406 1014.855469 130.289062 1014.363281 130.910156 C 1014.332031 130.945312 1014.25 130.992188 1014.226562 130.980469 C 1012.414062 129.972656 1010.511719 130.894531 1008.660156 130.722656 C 1005.375 130.414062 1004.097656 131.09375 1004.476562 130.113281 C 1004.542969 129.9375 1004.679688 129.601562 1004.246094 129.554688 C 1002.765625 129.394531 1004.589844 130.910156 1002.246094 130.886719 C 1000.980469 130.871094 1000.980469 130.882812 1000.875 132.09375 C 1000.859375 132.273438 1000.929688 132.546875 1000.636719 132.523438 C 999.828125 132.457031 999.132812 132.941406 998.304688 132.90625 C 997.21875 132.855469 996.15625 133.289062 995.046875 133.265625 C 994.503906 133.253906 994.382812 133.597656 994.386719 134.128906 C 994.488281 150.839844 994.316406 164.902344 994.226562 166.066406 C 994.253906 166.085938 994.285156 166.105469 994.3125 166.125 C 994.253906 166.121094 994.261719 166.148438 994.242188 166.050781 C 994.101562 178.605469 994.703125 178.503906 993.433594 178.519531 C 992.824219 178.527344 992.074219 178.210938 991.714844 179.183594 C 991.628906 179.414062 990.765625 179.691406 990.324219 179.355469 C 989.28125 178.554688 987.953125 180.175781 987.230469 178.917969 C 987.203125 178.871094 987.058594 178.828125 987.023438 178.855469 C 985.96875 179.671875 986.679688 178.578125 986.414062 173.453125 C 986.371094 172.582031 986.207031 171.738281 986.40625 170.855469 C 986.5 170.453125 986.125 170.367188 985.742188 170.359375 C 985.3125 170.347656 985.050781 170.421875 985.101562 170.925781 C 985.378906 173.851562 985.050781 176.765625 985.089844 178.636719 C 985.105469 179.429688 984.570312 179.285156 984.097656 179.273438 C 983.796875 179.265625 983.769531 179.269531 983.792969 178.703125 C 983.925781 175.492188 983.984375 172.28125 983.988281 169.066406 C 983.988281 168.125 984.527344 163.414062 983.695312 162.910156 C 983.414062 162.742188 983.070312 162.738281 982.746094 162.738281 C 980.820312 162.738281 978.894531 162.601562 976.972656 162.441406 C 975.484375 162.316406 973.441406 162.523438 972.03125 162.078125 C 971.417969 161.882812 971.378906 161.589844 971.25 161.03125 C 971.015625 160.023438 971.078125 158.890625 971.058594 157.863281 C 970.960938 152.226562 971.105469 146.578125 971.132812 140.941406 C 971.183594 130.484375 971.148438 120.027344 971.054688 109.570312 C 970.828125 84.617188 972.058594 85.71875 970.132812 84.726562 C 968.863281 84.074219 967.527344 84.628906 966.25 84.410156 C 964.550781 84.117188 963.152344 84.910156 961.699219 85.554688 C 961.429688 85.277344 961.746094 84.820312 961.378906 84.597656 C 961.011719 84.804688 961.71875 85.976562 960.203125 86.214844 C 959.359375 86.34375 958.597656 87.007812 957.800781 87.429688 C 957.511719 87.582031 957.597656 87.859375 957.59375 88.085938 C 957.546875 92.15625 957.800781 92.515625 956.996094 91.925781 C 956.59375 91.628906 956.957031 92.570312 956.46875 92.515625 C 956.128906 92.476562 956.269531 92.171875 956.269531 91.984375 C 956.257812 89.800781 956.234375 87.617188 956.277344 85.433594 C 956.3125 83.738281 955.199219 84.617188 954.753906 83.046875 C 954.21875 81.164062 954.179688 80.4375 954.28125 66.890625 C 954.296875 64.492188 952.796875 66.585938 952.027344 62.359375 C 951.902344 61.664062 951.871094 60.953125 952.109375 60.253906 C 952.742188 58.402344 951.222656 55.953125 952.214844 53.867188 C 952.300781 53.683594 952.351562 53.390625 952.265625 53.226562 C 951.394531 51.5625 952.429688 42.285156 951.289062 42.273438 C 950.554688 42.269531 951.355469 43.273438 950.628906 44.535156 C 950.332031 45.054688 950.621094 45.59375 950.621094 46.125 C 950.625 48.058594 950.886719 50.039062 950.546875 51.910156 C 950.230469 53.65625 950.953125 55.304688 950.582031 56.96875 C 950.023438 59.5 950.890625 64.105469 949.261719 64.183594 C 947.949219 64.246094 948.394531 65.347656 948 65.496094 C 946.707031 65.976562 947.167969 66.148438 947.097656 76.730469 C 947.082031 78.875 946.96875 81.015625 947.003906 83.160156 C 947.011719 83.820312 946.777344 84.191406 946.246094 84.34375 C 945.472656 84.566406 945.640625 84.75 945.613281 88.953125 C 945.613281 89.136719 945.710938 89.359375 945.429688 89.421875 C 944.996094 89.519531 945.191406 88.746094 944.765625 88.898438 C 943.859375 89.222656 942.898438 89.074219 941.96875 89.148438 C 940.929688 89.238281 939.910156 89.539062 938.84375 89.414062 C 938.207031 89.335938 937.636719 89.730469 937.023438 89.863281 C 935.488281 90.199219 936.324219 91.957031 936.132812 99.679688 C 936.097656 101.207031 935.878906 119.832031 936.160156 120.738281 C 936.167969 120.734375 936.175781 120.726562 936.179688 120.71875 C 936.167969 120.730469 936.15625 120.742188 936.140625 120.753906 C 936.15625 120.863281 936.167969 120.976562 936.183594 121.089844 C 936.21875 121.121094 936.378906 121.078125 936.253906 121.207031 C 936.238281 121.160156 936.222656 121.113281 936.203125 121.066406 C 935.910156 121.625 935.277344 121.476562 934.839844 121.589844 C 933.625 121.902344 932.359375 121.945312 931.152344 121.308594 C 930.144531 124.453125 930.390625 124.339844 930.390625 138.941406 C 930.390625 139.992188 930.4375 140.425781 930.042969 140.527344 C 929.632812 140.632812 929.207031 140.441406 929.070312 139.941406 C 928.941406 139.46875 928.800781 139.804688 928.65625 139.925781 C 928.699219 139.90625 928.742188 139.882812 928.785156 139.863281 C 928.792969 139.890625 928.796875 139.917969 928.800781 139.941406 C 928.753906 139.933594 928.707031 139.929688 928.65625 139.921875 C 928.394531 140.113281 928.847656 140.316406 928.628906 140.582031 C 928.492188 140.75 928.457031 140.921875 928.246094 140.765625 C 926.804688 139.707031 925.824219 140.9375 924.652344 141.433594 C 924.492188 141.292969 924.644531 141.046875 924.574219 140.855469 C 924.402344 140.382812 923.738281 140.480469 923.722656 140.894531 C 923.703125 141.484375 923.585938 142.074219 923.597656 142.660156 C 923.605469 143.21875 923.292969 143.425781 922.851562 143.4375 C 918.722656 143.542969 919.125 143.488281 919.09375 142.992188 C 918.984375 141.152344 919.074219 141.066406 918.722656 140.886719 C 918.546875 140.792969 918.351562 140.957031 918.3125 141.074219 C 918.171875 141.492188 917.898438 141.296875 917.621094 141.324219 C 917.101562 141.378906 916.648438 140.738281 916.050781 141.304688 C 915.738281 141.601562 915.214844 140.976562 914.664062 141.203125 C 914.460938 141.289062 914.460938 140.699219 914.613281 140.292969 C 913.183594 141.6875 912.878906 143.308594 913.226562 145.199219 C 912.777344 145.042969 912.59375 144.894531 912.183594 145.195312 C 911.734375 145.527344 910.863281 145.304688 910.175781 145.292969 C 910.011719 145.289062 909.984375 145.417969 909.832031 142.917969 C 909.796875 142.394531 909.417969 142.316406 909.214844 142.632812 C 908.921875 143.097656 908.566406 142.964844 908.207031 142.960938 C 906.855469 142.960938 905.515625 142.863281 904.210938 142.457031 C 904.136719 142.4375 903.984375 142.464844 903.980469 142.445312 C 903.753906 141.394531 903.167969 142.070312 902.644531 142.089844 C 901.660156 142.128906 900.644531 142.40625 899.679688 141.910156 C 899.378906 141.753906 899.171875 142.164062 898.859375 142.160156 C 898.058594 142.148438 897.257812 142.148438 896.457031 142.167969 C 894.636719 142.210938 895.203125 134.011719 895.078125 171.933594 C 895.078125 172.371094 895.28125 172.878906 894.847656 173.257812 L 894.871094 173.234375 C 894.691406 173.355469 894.515625 173.476562 894.335938 173.597656 C 894.34375 173.585938 894.347656 173.574219 894.355469 173.566406 C 894.359375 173.582031 894.359375 173.597656 894.363281 173.613281 C 893.449219 173.671875 892.535156 173.523438 891.671875 173.308594 C 890.015625 172.898438 891.261719 170.746094 890.613281 168.683594 C 890.398438 168 889.589844 167.53125 888.933594 167.726562 L 888.949219 167.703125 C 888.886719 167.894531 888.820312 167.828125 888.75 167.707031 L 888.769531 167.730469 C 888.660156 167.726562 888.550781 167.726562 888.441406 167.726562 L 888.457031 167.703125 C 888.394531 167.859375 888.320312 167.757812 888.253906 167.710938 L 888.265625 167.730469 C 888.15625 167.730469 888.046875 167.730469 887.9375 167.730469 L 887.957031 167.703125 C 887.890625 167.867188 887.824219 167.824219 887.757812 167.707031 L 887.773438 167.730469 C 887.585938 167.578125 887.421875 167.375 887.210938 167.289062 C 885.425781 166.546875 888.167969 165.765625 886.746094 165.648438 C 886.535156 165.628906 886.628906 165.976562 886.605469 159.511719 C 886.605469 158.632812 886.253906 158.234375 885.371094 158.292969 C 883.558594 158.410156 881.710938 158.128906 879.960938 158.398438 C 878.484375 158.625 878.972656 157.828125 878.972656 157.242188 C 878.953125 153.707031 878.972656 150.171875 878.972656 146.640625 C 878.972656 145.507812 877.769531 144.671875 876.757812 145.039062 C 876.90625 143 876.792969 140.9375 876.828125 138.875 C 876.835938 138.597656 876.558594 138.550781 876.480469 138.347656 L 876.507812 138.363281 C 876.445312 138.296875 876.382812 138.234375 876.316406 138.171875 L 876.34375 138.195312 C 876.300781 138.171875 876.257812 138.148438 876.21875 138.125 C 876.257812 138.085938 876.300781 138.042969 876.34375 138 L 876.320312 138.023438 C 875.539062 137.457031 874.632812 137.601562 873.753906 137.566406 C 868.972656 137.359375 869.03125 137.734375 869.03125 138.675781 C 869.035156 140.414062 869.039062 142.152344 869.03125 143.890625 C 869.027344 144.429688 868.792969 144.757812 868.1875 144.652344 L 868.210938 144.671875 C 868.027344 144.476562 867.828125 144.621094 867.636719 144.644531 L 867.621094 144.617188 C 867.523438 145.445312 867.121094 144.421875 866.941406 144.726562 L 866.941406 144.710938 C 866.667969 144.71875 866.710938 145.496094 866.230469 145.003906 Z M 866.25 145.019531 "/>
</g>
<path style=" stroke:none;fill-rule:nonzero;fill:rgb(100%,95.289612%,83.918762%);fill-opacity:1;" d="M 861.46875 179.417969 C 861.789062 179.597656 861.75 179.253906 861.5625 179.3125 C 861.523438 179.324219 861.5 179.378906 861.46875 179.417969 Z M 861.46875 179.417969 "/>
<path style=" stroke:none;fill-rule:nonzero;fill:rgb(100%,95.289612%,83.918762%);fill-opacity:1;" d="M 934.554688 121.53125 L 934.613281 121.5 L 934.546875 121.484375 Z M 934.554688 121.53125 "/>
<path style=" stroke:none;fill-rule:nonzero;fill:rgb(100%,95.289612%,83.918762%);fill-opacity:1;" d="M 860.332031 167.132812 L 860.257812 167.109375 L 860.265625 167.164062 Z M 860.332031 167.132812 "/>
<path style=" stroke:none;fill-rule:nonzero;fill:rgb(100%,95.289612%,83.918762%);fill-opacity:1;" d="M 863.609375 179.101562 C 863.679688 179.085938 863.800781 179.09375 863.8125 179.058594 C 863.878906 178.871094 863.769531 179.035156 863.628906 179.101562 C 863.625 179.101562 863.609375 179.101562 863.609375 179.101562 Z M 863.609375 179.101562 "/>
<path style=" stroke:none;fill-rule:nonzero;fill:rgb(100%,95.289612%,83.918762%);fill-opacity:1;" d="M 862 179.269531 C 862.011719 179.164062 862.023438 179.0625 862.035156 178.957031 C 861.835938 179 862.011719 179.035156 861.996094 179.265625 C 861.996094 179.265625 862 179.269531 862 179.269531 Z M 862 179.269531 "/>
<path style=" stroke:none;fill-rule:nonzero;fill:rgb(100%,95.289612%,83.918762%);fill-opacity:1;" d="M 840.527344 102.675781 C 840.34375 102.730469 840.441406 102.785156 840.527344 102.84375 C 840.527344 102.84375 840.5 102.855469 840.5 102.855469 C 840.5 102.789062 840.5 102.726562 840.5 102.660156 Z M 840.527344 102.675781 "/>
<path style=" stroke:none;fill-rule:nonzero;fill:rgb(100%,95.289612%,83.918762%);fill-opacity:1;" d="M 757.75 134.980469 C 757.738281 135.019531 757.722656 135.058594 757.710938 135.097656 C 757.675781 135.058594 757.636719 135.019531 757.601562 134.984375 C 757.601562 134.984375 757.578125 135.019531 757.578125 135.019531 C 757.644531 135.019531 757.710938 135.019531 757.777344 135.019531 Z M 757.75 134.980469 "/>
<path style=" stroke:none;fill-rule:nonzero;fill:rgb(100%,95.289612%,83.918762%);fill-opacity:1;" d="M 876.480469 138.183594 C 876.484375 138.070312 876.425781 138.023438 876.316406 138.023438 C 876.316406 138.023438 876.339844 137.929688 876.339844 138.195312 C 876.300781 138.15625 876.445312 138.167969 876.507812 138.167969 Z M 876.480469 138.183594 "/>
<path style=" stroke:none;fill-rule:nonzero;fill:rgb(100%,95.289612%,83.918762%);fill-opacity:1;" d="M 876.480469 138.347656 C 876.609375 138.292969 876.617188 138.238281 876.480469 138.183594 C 876.480469 138.183594 876.507812 138.167969 876.507812 138.167969 C 876.507812 138.234375 876.507812 138.296875 876.507812 138.363281 Z M 876.480469 138.347656 "/>
<path style=" stroke:none;fill-rule:nonzero;fill:rgb(100%,95.289612%,83.918762%);fill-opacity:1;" d="M 904.402344 141.917969 C 904.414062 141.933594 904.421875 141.949219 904.429688 141.964844 C 904.453125 141.945312 904.476562 141.929688 904.5 141.914062 C 904.4375 141.855469 904.460938 141.851562 904.402344 141.917969 Z M 904.402344 141.917969 "/>
<path style=" stroke:none;fill-rule:nonzero;fill:rgb(100%,95.289612%,83.918762%);fill-opacity:1;" d="M 868.1875 144.648438 C 868.230469 144.632812 868.269531 144.617188 868.3125 144.597656 C 868.292969 144.578125 868.273438 144.5625 868.253906 144.542969 C 868.234375 144.597656 868.222656 144.683594 868.1875 144.648438 Z M 868.1875 144.648438 "/>
<path style=" stroke:none;fill-rule:nonzero;fill:rgb(100%,95.289612%,83.918762%);fill-opacity:1;" d="M 867.632812 144.644531 C 867.644531 144.625 867.652344 144.609375 867.660156 144.589844 C 867.648438 144.601562 867.636719 144.609375 867.621094 144.617188 C 867.621094 144.617188 867.632812 144.644531 867.632812 144.644531 Z M 867.632812 144.644531 "/>
<path style=" stroke:none;fill-rule:nonzero;fill:rgb(100%,95.289612%,83.918762%);fill-opacity:1;" d="M 866.9375 144.726562 C 866.878906 144.734375 866.816406 144.738281 866.757812 144.746094 C 866.765625 144.769531 866.773438 144.792969 866.78125 144.8125 C 866.832031 144.78125 866.886719 144.75 866.941406 144.710938 C 866.941406 144.710938 866.9375 144.726562 866.9375 144.726562 Z M 866.9375 144.726562 "/>
<path style=" stroke:none;fill-rule:nonzero;fill:rgb(100%,95.289612%,83.918762%);fill-opacity:1;" d="M 866.230469 145 C 866.265625 144.972656 866.300781 144.941406 866.335938 144.914062 C 866.304688 144.902344 866.273438 144.894531 866.246094 144.882812 C 866.246094 144.929688 866.246094 144.972656 866.25 145.019531 C 866.25 145.019531 866.230469 145 866.230469 145 Z M 866.230469 145 "/>
<path style=" stroke:none;fill-rule:nonzero;fill:rgb(100%,95.289612%,83.918762%);fill-opacity:1;" d="M 888.929688 167.726562 C 888.902344 167.683594 888.878906 167.640625 888.851562 167.59375 C 888.824219 167.640625 888.796875 167.683594 888.769531 167.726562 C 888.769531 167.726562 888.683594 167.707031 888.949219 167.703125 Z M 888.929688 167.726562 "/>
<path style=" stroke:none;fill-rule:nonzero;fill:rgb(100%,95.289612%,83.918762%);fill-opacity:1;" d="M 888.4375 167.726562 C 888.378906 167.59375 888.324219 167.578125 888.265625 167.730469 C 888.265625 167.730469 888.25 167.710938 888.25 167.710938 C 888.320312 167.707031 888.386719 167.703125 888.457031 167.703125 Z M 888.4375 167.726562 "/>
<path style=" stroke:none;fill-rule:nonzero;fill:rgb(100%,95.289612%,83.918762%);fill-opacity:1;" d="M 887.9375 167.726562 C 887.882812 167.574219 887.828125 167.566406 887.773438 167.726562 C 887.773438 167.726562 887.6875 167.707031 887.957031 167.703125 Z M 887.9375 167.726562 "/>
<path style=" stroke:none;fill-rule:nonzero;fill:rgb(100%,95.289612%,83.918762%);fill-opacity:1;" d="M 844.367188 102.335938 C 844.328125 102.3125 844.285156 102.285156 844.246094 102.257812 C 844.285156 102.230469 844.328125 102.203125 844.371094 102.179688 C 844.371094 102.179688 844.332031 102.15625 844.332031 102.15625 C 844.332031 102.222656 844.332031 102.292969 844.332031 102.359375 Z M 844.367188 102.335938 "/>
<path style=" stroke:none;fill-rule:nonzero;fill:rgb(100%,95.289612%,83.918762%);fill-opacity:1;" d="M 894.847656 173.253906 C 894.855469 173.203125 894.863281 173.152344 894.871094 173.101562 C 894.710938 173.148438 894.859375 173.1875 894.871094 173.230469 C 894.867188 173.234375 894.847656 173.253906 894.847656 173.253906 Z M 894.847656 173.253906 "/>
<path style=" stroke:none;fill-rule:nonzero;fill:rgb(100%,95.289612%,83.918762%);fill-opacity:1;" d="M 846.808594 103.097656 C 846.808594 103.113281 846.804688 103.128906 846.804688 103.144531 C 846.8125 103.136719 846.824219 103.132812 846.832031 103.121094 C 846.828125 103.117188 846.808594 103.097656 846.808594 103.097656 Z M 846.808594 103.097656 "/>
</g>
</svg>
