<?xml version="1.0" encoding="UTF-8"?>
<svg xmlns="http://www.w3.org/2000/svg" xmlns:xlink="http://www.w3.org/1999/xlink" width="810pt" height="809.999993pt" viewBox="0 0 810 809.999993" version="1.2">
<defs>
<clipPath id="clip1">
  <path d="M 22 50 L 789 50 L 789 747 L 22 747 Z M 22 50 "/>
</clipPath>
<clipPath id="clip2">
  <path d="M 310.886719 -142.695312 L 977.429688 383.160156 L 606.265625 853.625 L -60.277344 327.773438 Z M 310.886719 -142.695312 "/>
</clipPath>
<clipPath id="clip3">
  <path d="M 310.886719 -142.695312 L 977.429688 383.160156 L 606.265625 853.625 L -60.277344 327.773438 Z M 310.886719 -142.695312 "/>
</clipPath>
<clipPath id="clip4">
  <path d="M 312.578125 -141.359375 L 976.886719 382.730469 L 597.59375 863.5 L -66.714844 339.40625 Z M 312.578125 -141.359375 "/>
</clipPath>
<clipPath id="clip5">
  <path d="M 312.578125 -141.359375 L 975.992188 382.023438 L 604.742188 852.597656 L -58.671875 329.210938 Z M 312.578125 -141.359375 "/>
</clipPath>
</defs>
<g id="surface1">
<g clip-path="url(#clip1)" clip-rule="nonzero">
<g clip-path="url(#clip2)" clip-rule="nonzero">
<g clip-path="url(#clip3)" clip-rule="nonzero">
<g clip-path="url(#clip4)" clip-rule="nonzero">
<g clip-path="url(#clip5)" clip-rule="nonzero">
<path style=" stroke:none;fill-rule:nonzero;fill:rgb(100%,100%,100%);fill-opacity:1;" d="M 356.960938 628.242188 C 338.21875 600.109375 311.882812 577.734375 281.074219 563.878906 C 256.402344 552.828125 233.671875 543.089844 216.675781 535.921875 C 195.375 526.953125 175.410156 514.902344 157.890625 499.847656 C -278.691406 123.496094 464.914062 -77.109375 665.605469 140.414062 C 743.789062 225.238281 774.207031 392.222656 787.734375 533.332031 C 798.945312 651.0625 703.765625 751.460938 585.542969 746.191406 C 570.824219 745.53125 557.148438 744.460938 544.492188 743.113281 C 468.097656 734.78125 399.546875 692.308594 356.960938 628.242188 "/>
</g>
</g>
</g>
</g>
</g>
</g>
</svg>
